<?xml version="1.0" standalone="no"?>
<!DOCTYPE svg PUBLIC "-//W3C//DTD SVG 1.1//EN" "http://www.w3.org/Graphics/SVG/1.1/DTD/svg11.dtd" >
<svg xmlns="http://www.w3.org/2000/svg">
<metadata></metadata>
<defs>
<font id="db_ozone_xregular" horiz-adv-x="0" >
<font-face units-per-em="2048" ascent="1638" descent="-410" />
<missing-glyph horiz-adv-x="428" />
<glyph unicode="&#x2b;&#x2d;" horiz-adv-x="845" d="M477 438v-276h-106v276h-277v107h277v274h106v-274h277v-107h-277zM754 106v-106h-660v106h660z" />
<glyph unicode="&#x2e;&#x2e;&#x2e;" horiz-adv-x="1167" d="M872 74q0 33 24 56.5t56 23.5q35 0 58.5 -24t23.5 -56q0 -35 -23.5 -58.5t-58.5 -23.5q-33 0 -56.5 23.5t-23.5 58.5zM502 74q0 33 23.5 56.5t58.5 23.5q33 0 56.5 -24t23.5 -56q0 -35 -24 -58.5t-56 -23.5q-35 0 -58.5 23.5t-23.5 58.5zM133 74q0 33 23.5 56.5 t56.5 23.5q35 0 58.5 -24t23.5 -56q0 -35 -23.5 -58.5t-58.5 -23.5q-33 0 -56.5 23.5t-23.5 58.5z" />
<glyph unicode="&#x3c;&#x3d;" horiz-adv-x="847" d="M768 178l-688 266v95l688 268v-117l-528 -196l528 -199v-117zM80 4v105h688v-105h-688z" />
<glyph unicode="&#x3e;&#x3d;" horiz-adv-x="845" d="M80 295l526 199l-526 196v117l688 -268v-95l-688 -266v117zM768 4v105h-688v-105h688z" />
<glyph unicode="&#xe4f;&#x22;" horiz-adv-x="1046" d="M381 410q0 -57 41 -98.5t98 -41.5q59 0 100.5 41t41.5 99q0 59 -41 100t-101 41q-57 0 -98 -41t-41 -100zM360 934l-12 266h125l-12 -266h-101zM578 934l-13 266h125l-12 -266h-100zM92 410q0 90 34 168.5t92 137t136 92.5t166 34q90 0 169 -34t137.5 -92.5t92 -137 t33.5 -168.5q0 -88 -33.5 -166t-92 -136.5t-137.5 -92t-169 -33.5q-88 0 -166 33.5t-136 92t-92 136.5t-34 166zM203 410q0 -66 25.5 -123.5t68.5 -100.5t100.5 -68.5t122.5 -25.5q68 0 126.5 25.5t101.5 68.5t68.5 100.5t25.5 123.5q0 68 -25.5 126t-68.5 101t-101.5 68.5 t-126.5 25.5q-66 0 -123 -25.5t-100 -68.5t-68.5 -101t-25.5 -126zM285 410q0 49 18.5 92t51 75.5t74.5 51t91 18.5t92 -18.5t76 -51t51.5 -75.5t18.5 -92t-18.5 -91.5t-51.5 -75t-76 -51t-92 -18.5t-91 18.5t-74.5 51t-51 75t-18.5 91.5z" />
<glyph unicode="&#xe0e;&#xe3a;" horiz-adv-x="940" d="M285 195q0 -66 -22.5 -105t-54.5 -59.5t-68 -26.5t-62 -6l-21 106q41 -2 63.5 8.5t32 28t10.5 37t1 37.5v287l-78 110q131 223 383 224q180 0 268 -83t90 -237v-655q0 -33 -10 -57.5t-23.5 -42t-26.5 -27.5t-19 -13q-23 -10 -51.5 -10t-55.5 10l-188 86q-10 6 -25 0 q-47 -23 -102.5 -51t-104.5 -51l-63 78l239 119q25 12 41.5 11t42.5 -11l201 -88q8 -4 16.5 4t8.5 24v660q0 127 -61.5 179t-178.5 52q-66 0 -128.5 -22.5t-115.5 -87.5l62 -93v-335zM674 -467q0 35 23.5 58.5t58.5 23.5t58.5 -23.5t23.5 -58.5t-23.5 -58.5t-58.5 -23.5 t-58.5 23.5t-23.5 58.5z" />
<glyph unicode="&#xe0f;&#xe3a;" horiz-adv-x="942" d="M707 502q0 127 -61.5 179t-178.5 52q-66 0 -127 -22.5t-117 -87.5l62 -93v-335q0 -66 -22.5 -105t-54.5 -59.5t-68 -26.5t-62 -6l-21 106q41 -2 63.5 8.5t32 28t10.5 37t1 37.5v287l-78 110q131 223 383 224q180 0 268 -83t90 -237v-653q0 -35 -15 -68t-42 -55.5 t-60.5 -27.5t-70.5 16l-135 75q-16 8 -31 0l-125 -75q-27 -16 -48 -13.5t-40 15.5l-186 133l96 55l129 -92q10 -6 20 0l127 80q23 16 42.5 15t41.5 -15l140 -80q12 -4 24.5 6t12.5 33v637zM674 -467q0 35 23.5 58.5t58.5 23.5t58.5 -23.5t23.5 -58.5t-23.5 -58.5 t-58.5 -23.5t-58.5 23.5t-23.5 58.5z" />
<glyph unicode="&#xe0e;&#xe38;" horiz-adv-x="940" d="M285 195q0 -66 -22.5 -105t-54.5 -59.5t-68 -26.5t-62 -6l-21 106q41 -2 63.5 8.5t32 28t10.5 37t1 37.5v287l-78 110q131 223 383 224q180 0 268 -83t90 -237v-655q0 -33 -10 -57.5t-23.5 -42t-26.5 -27.5t-19 -13q-23 -10 -51.5 -10t-55.5 10l-188 86q-10 6 -25 0 q-47 -23 -102.5 -51t-104.5 -51l-63 78l239 119q25 12 41.5 11t42.5 -11l201 -88q8 -4 16.5 4t8.5 24v660q0 127 -61.5 179t-178.5 52q-66 0 -128.5 -22.5t-115.5 -87.5l62 -93v-335zM711 -541q0 39 -9.5 48.5t-35.5 9.5h-41v104h51q43 0 71.5 -6t46 -23.5t25.5 -48t8 -82.5 v-127h-116v125z" />
<glyph unicode="&#xe0f;&#xe38;" horiz-adv-x="942" d="M707 502q0 127 -61.5 179t-178.5 52q-66 0 -127 -22.5t-117 -87.5l62 -93v-335q0 -66 -22.5 -105t-54.5 -59.5t-68 -26.5t-62 -6l-21 106q41 -2 63.5 8.5t32 28t10.5 37t1 37.5v287l-78 110q131 223 383 224q180 0 268 -83t90 -237v-653q0 -35 -15 -68t-42 -55.5 t-60.5 -27.5t-70.5 16l-135 75q-16 8 -31 0l-125 -75q-27 -16 -48 -13.5t-40 15.5l-186 133l96 55l129 -92q10 -6 20 0l127 80q23 16 42.5 15t41.5 -15l140 -80q12 -4 24.5 6t12.5 33v637zM711 -541q0 39 -9.5 48.5t-35.5 9.5h-41v104h51q43 0 71.5 -6t46 -23.5t25.5 -48 t8 -82.5v-127h-116v125z" />
<glyph unicode="&#xe0e;&#xe39;" horiz-adv-x="942" d="M285 195q0 -66 -22.5 -105t-54.5 -59.5t-68 -26.5t-62 -6l-21 106q41 -2 63.5 8.5t32 28t10.5 37t1 37.5v287l-78 110q131 223 383 224q180 0 268 -83t90 -237v-655q0 -33 -10 -57.5t-23.5 -42t-26.5 -27.5t-19 -13q-23 -10 -51.5 -10t-55.5 10l-188 86q-10 6 -25 0 q-47 -23 -102.5 -51t-104.5 -51l-63 78l239 119q25 12 41.5 11t42.5 -11l201 -88q8 -4 16.5 4t8.5 24v660q0 127 -61.5 179t-178.5 52q-66 0 -128.5 -22.5t-115.5 -87.5l62 -93v-335zM487 -510q0 27 -24 27h-41v102h63q66 0 90.5 -26.5t24.5 -92.5v-10q0 -18 11.5 -37.5 t45.5 -19.5q35 0 45.5 19.5t10.5 37.5v129h114v-129q0 -72 -48 -115t-122 -43q-78 0 -124 43t-46 115z" />
<glyph unicode="&#xe0f;&#xe39;" horiz-adv-x="942" d="M707 502q0 127 -61.5 179t-178.5 52q-66 0 -127 -22.5t-117 -87.5l62 -93v-335q0 -66 -22.5 -105t-54.5 -59.5t-68 -26.5t-62 -6l-21 106q41 -2 63.5 8.5t32 28t10.5 37t1 37.5v287l-78 110q131 223 383 224q180 0 268 -83t90 -237v-653q0 -35 -15 -68t-42 -55.5 t-60.5 -27.5t-70.5 16l-135 75q-16 8 -31 0l-125 -75q-27 -16 -48 -13.5t-40 15.5l-186 133l96 55l129 -92q10 -6 20 0l127 80q23 16 42.5 15t41.5 -15l140 -80q12 -4 24.5 6t12.5 33v637zM487 -510q0 27 -24 27h-41v102h63q66 0 90.5 -26.5t24.5 -92.5v-10 q0 -18 11.5 -37.5t45.5 -19.5q35 0 45.5 19.5t10.5 37.5v129h114v-129q0 -72 -48 -115t-122 -43q-78 0 -124 43t-46 115z" />
<glyph unicode="&#xd;" horiz-adv-x="485" />
<glyph unicode=" "  horiz-adv-x="428" />
<glyph unicode="&#x09;" horiz-adv-x="428" />
<glyph unicode="&#xa0;" horiz-adv-x="428" />
<glyph unicode="!" horiz-adv-x="491" d="M317 315h-98l-12 727h127zM190 68q0 33 23 54t55 21q31 0 53.5 -21.5t22.5 -53.5q0 -33 -22.5 -55.5t-53.5 -22.5q-33 0 -55.5 22.5t-22.5 55.5z" />
<glyph unicode="&#x22;" horiz-adv-x="657" d="M399 786v267h125v-267h-125zM133 786v267h125v-267h-125z" />
<glyph unicode="#" horiz-adv-x="1009" d="M756 631l-35 -199h133v-98h-145q-14 -84 -28.5 -167t-27.5 -167h-118l55 334h-234q-12 -84 -25.5 -167t-25.5 -167h-119l54 334h-131v98h147l35 199h-137v104h151l51 314h119l-51 -314h229l49 314h117l-49 -314h131v-104h-145zM410 631q-6 -51 -16.5 -99.5t-18.5 -99.5 h229l33 199h-227z" />
<glyph unicode="$" horiz-adv-x="864" d="M782 285q0 -127 -86 -205t-227 -90v-162h-94v158q-100 4 -173 37.5t-141 103.5l76 82q57 -57 114.5 -83t129.5 -30v379q-4 0 -11.5 1t-13.5 1q-121 12 -194.5 85t-73.5 194q0 127 76 205.5t211 89.5v131h94v-131q82 -4 143.5 -32t122.5 -85l-73 -76q-41 39 -86.5 61.5 t-110.5 26.5v-373l39 -4q129 -23 203.5 -86t74.5 -198zM381 946q-88 -8 -133 -58t-45 -128q0 -82 53 -122t125 -50v358zM666 283q0 92 -59.5 135t-141.5 47v-369q94 8 147.5 56.5t53.5 130.5z" />
<glyph unicode="%" horiz-adv-x="1228" d="M1145 190q0 -92 -59.5 -147t-145.5 -55q-90 0 -148.5 55t-58.5 147v154q0 92 58.5 145.5t148.5 53.5q86 0 145.5 -53.5t59.5 -145.5v-154zM414 0h-99l500 1036h100zM496 692q0 -90 -58.5 -143t-146.5 -53q-90 0 -147.5 53t-57.5 143v156q0 92 57.5 146.5t147.5 54.5 q88 0 146.5 -54.5t58.5 -146.5v-156zM1051 342q0 55 -26 89t-85 34q-61 0 -88 -33t-27 -90v-147q0 -59 27 -92t88 -33q59 0 85 33.5t26 91.5v147zM406 844q0 57 -28 91t-87 34t-86 -34t-27 -91v-150q0 -55 26.5 -87t86.5 -32q59 0 87 33t28 86v150z" />
<glyph unicode="&#x26;" horiz-adv-x="1118" d="M856 0l-94 113q-16 -14 -43 -36t-66 -41.5t-90 -32.5t-114 -13q-156 0 -248 85t-92 222q0 57 19 103t51 83t73 68t86 59q-41 47 -78 100.5t-37 125.5q0 47 17.5 88t50.5 70.5t76 46t96 16.5q102 0 167.5 -63.5t65.5 -159.5q0 -63 -32.5 -108.5t-85.5 -80.5l-29 -20 q-12 -8 -23.5 -16.5t-21.5 -14.5l264 -311q29 45 42 97t15 138h115q-2 -102 -23.5 -182t-72.5 -139l168 -197h-156zM584 834q0 51 -34 85.5t-87 34.5t-86 -32.5t-33 -83.5q0 -37 19.5 -71t72.5 -95q6 4 15.5 11t17.5 11l20 13q35 27 65 54.5t30 72.5zM406 532 q-33 -23 -65 -46t-57.5 -50.5t-41 -60.5t-15.5 -74q0 -92 60.5 -148.5t158.5 -56.5q57 0 118 20.5t130 78.5z" />
<glyph unicode="'" horiz-adv-x="407" d="M141 793v268h125v-268h-125z" />
<glyph unicode="(" horiz-adv-x="456" d="M287 -147q-37 37 -63.5 65.5t-49.5 67.5q-23 41 -28 82t-5 82v827q0 41 5.5 82t27.5 80q23 41 49.5 69.5t63.5 67.5l78 -78q-29 -29 -49.5 -50.5t-36.5 -51.5q-10 -25 -17.5 -57.5t-7.5 -71.5v-807q0 -39 7 -72t18 -57q16 -31 36.5 -52.5t49.5 -50.5z" />
<glyph unicode=")" horiz-adv-x="456" d="M90 -72q29 29 49.5 50.5t36.5 52.5q10 25 17.5 57.5t7.5 71.5v807q0 39 -7.5 71.5t-17.5 57.5q-16 31 -36.5 52t-49.5 50l78 78q37 -39 63.5 -67.5t49.5 -69.5q23 -39 27.5 -80t4.5 -82v-827q0 -41 -5 -82t-27 -82q-23 -39 -49.5 -68t-63.5 -65z" />
<glyph unicode="*" horiz-adv-x="753" d="M602 604l-186 113l8 -219h-92l4 219l-182 -113l-45 78l190 102l-190 105l45 76l182 -113l-4 217h92l-8 -217l186 113l45 -76l-190 -105l190 -102z" />
<glyph unicode="+" horiz-adv-x="847" d="M477 371v-277h-106v277h-277v106h277v277h106v-277h277v-106h-277z" />
<glyph unicode="," horiz-adv-x="415" d="M137 -227v366h139v-241z" />
<glyph unicode="-" horiz-adv-x="688" d="M127 371v106h434v-106h-434z" />
<glyph unicode="." horiz-adv-x="425" d="M133 74q0 33 23.5 56.5t56.5 23.5q35 0 58.5 -24t23.5 -56q0 -35 -23.5 -58.5t-58.5 -23.5q-33 0 -56.5 23.5t-23.5 58.5z" />
<glyph unicode="/" horiz-adv-x="544" d="M100 -117h-112l450 1360h115z" />
<glyph unicode="0" horiz-adv-x="761" d="M680 276q0 -63 -22.5 -116.5t-62.5 -91t-95.5 -58t-118.5 -20.5t-117.5 20.5t-94.5 58t-62.5 91t-22.5 116.5v484q0 66 22.5 118t62.5 89t94 57t118 20q63 0 118.5 -20t95.5 -57t62.5 -89.5t22.5 -117.5v-484zM563 754q0 84 -47 139t-135 55t-135 -55t-47 -139v-473 q0 -80 47 -134.5t135 -54.5t135 54.5t47 134.5v473z" />
<glyph unicode="1" horiz-adv-x="761" d="M371 0v911l-201 -174v131l203 168h114v-1036h-116z" />
<glyph unicode="2" horiz-adv-x="761" d="M86 0v96l422 520q29 37 45 73t16 77q0 82 -48 132t-136 50q-72 0 -127 -43t-55 -143h-115q0 125 80 203.5t217 78.5q135 0 218 -73.5t83 -204.5q0 -61 -23.5 -109.5t-64.5 -99.5l-373 -457h461v-100h-600z" />
<glyph unicode="3" horiz-adv-x="761" d="M686 279q0 -72 -25.5 -126.5t-68.5 -91t-101.5 -56t-125.5 -19.5q-63 0 -120 17t-100 52t-69.5 89.5t-28.5 125.5h117q6 -96 65.5 -139t135.5 -43q88 0 146 50t58 143q0 96 -49 147t-158 51h-26v101h26q98 0 142.5 48t44.5 136q0 90 -53.5 136t-130.5 46 q-84 0 -132.5 -45t-56.5 -125h-117q4 63 29 113.5t66 84.5t95 52t116 18q135 0 218 -75.5t83 -204.5q0 -160 -136 -229q156 -59 156 -256z" />
<glyph unicode="4" horiz-adv-x="761" d="M584 164v-164h-115v164h-430v100l387 772h129l-389 -770h303v293h115v-293h131v-102h-131z" />
<glyph unicode="5" horiz-adv-x="761" d="M690 344q0 -78 -15.5 -147.5t-74.5 -126.5q-39 -39 -92 -60.5t-125 -21.5q-70 0 -125 21.5t-92 56.5q-35 35 -53.5 82t-22.5 104h115q10 -78 53 -120t125 -42q41 0 76 12.5t57 34.5q41 37 48 94.5t7 112.5q0 45 -6 90t-24.5 80t-53 56.5t-92.5 21.5q-70 0 -114.5 -27.5 t-61.5 -72.5h-102v544h549v-98h-447v-313q35 29 82 47t107 18q63 0 109 -18.5t79 -48.5q61 -59 77.5 -132t16.5 -147z" />
<glyph unicode="6" horiz-adv-x="761" d="M707 330q0 -72 -22.5 -134.5t-64.5 -107.5t-102.5 -70.5t-136.5 -25.5q-147 0 -237.5 90t-90.5 237q0 61 20.5 121t53.5 131l244 465h127l-213 -411q59 27 118 26q66 0 121.5 -24.5t96.5 -67.5t63.5 -101t22.5 -128zM594 326q0 45 -14.5 86t-42 71.5t-67.5 48t-91 17.5 q-92 0 -150.5 -60.5t-58.5 -162.5q0 -104 58.5 -167t150.5 -63q94 0 154.5 63t60.5 167z" />
<glyph unicode="7" horiz-adv-x="761" d="M328 0h-125l372 938h-364v-160h-115v258h602v-96z" />
<glyph unicode="8" horiz-adv-x="761" d="M700 285q0 -66 -24.5 -119t-67.5 -93t-101 -61.5t-126 -21.5t-126 21.5t-102 61.5t-69 93t-25 119q0 92 44 154.5t112 99.5q-59 35 -96 91t-37 138q0 61 22.5 111.5t62.5 87.5t94 57t120 20q63 0 118.5 -20t96.5 -57t63.5 -87.5t22.5 -111.5q0 -82 -37 -138.5t-98 -90.5 q66 -37 109.5 -99.5t43.5 -154.5zM563 766q0 78 -49 130t-133 52q-80 0 -131 -52t-51 -130q0 -82 51 -131t131 -49q84 0 133 49t49 131zM586 287q0 86 -58.5 142t-146.5 56t-146.5 -56t-58.5 -142q0 -84 58.5 -139.5t146.5 -55.5t146.5 55.5t58.5 139.5z" />
<glyph unicode="9" horiz-adv-x="761" d="M53 707q0 72 22.5 133t64.5 106t102.5 70.5t134.5 25.5t134 -23.5t104 -65.5t68 -102t24 -134q0 -63 -20.5 -121.5t-53.5 -130.5l-244 -465h-127l211 410q-27 -10 -55.5 -17.5t-61.5 -7.5q-66 0 -121 24.5t-96 67.5t-63.5 101.5t-22.5 128.5zM166 711q0 -45 14.5 -86 t42 -72t66.5 -48.5t90 -17.5q94 0 152.5 60.5t58.5 163.5q0 104 -58.5 166.5t-152.5 62.5t-153.5 -62.5t-59.5 -166.5z" />
<glyph unicode=":" horiz-adv-x="471" d="M176 72q0 33 22.5 56.5t57.5 23.5t57.5 -24t22.5 -56q0 -35 -22.5 -58.5t-57.5 -23.5t-57.5 23.5t-22.5 58.5zM176 588q0 33 22.5 56.5t57.5 23.5t57.5 -23.5t22.5 -56.5q0 -35 -22.5 -58.5t-57.5 -23.5t-57.5 23.5t-22.5 58.5z" />
<glyph unicode=";" horiz-adv-x="471" d="M184 -227v366h142v-241zM176 588q0 33 22.5 56.5t57.5 23.5t57.5 -23.5t22.5 -56.5q0 -35 -22.5 -58.5t-57.5 -23.5t-57.5 23.5t-22.5 58.5z" />
<glyph unicode="&#x3c;" horiz-adv-x="845" d="M768 160l-688 266v94l688 266v-116l-528 -197l528 -199v-114z" />
<glyph unicode="=" horiz-adv-x="847" d="M94 506v106h660v-106h-660zM94 240v102h660v-102h-660z" />
<glyph unicode="&#x3e;" horiz-adv-x="845" d="M80 274l526 199l-526 197v116l688 -266v-94l-688 -266v114z" />
<glyph unicode="?" horiz-adv-x="737" d="M662 786q0 -53 -19.5 -96t-48.5 -86l-123 -172q-12 -20 -19.5 -43.5t-7.5 -40.5v-59h-116v61q0 41 13 75t36 67l119 172q23 29 37 57.5t14 64.5q0 72 -48 119t-122 47q-78 0 -123 -51t-45 -121h-117q0 57 21.5 107.5t60.5 87.5t90 58.5t113 21.5q59 0 111.5 -19.5 t90 -55.5t60.5 -85.5t23 -108.5zM311 66q0 33 21.5 55t54.5 22t55.5 -22.5t22.5 -54.5q0 -33 -22.5 -55.5t-55.5 -22.5t-54.5 22.5t-21.5 55.5z" />
<glyph unicode="@" horiz-adv-x="1249" d="M551 281q61 0 101 33.5t64.5 84t35 109.5t10.5 113q0 59 -24.5 102t-94.5 43q-43 0 -78 -23.5t-60.5 -60.5t-42 -80t-24.5 -82q-8 -37 -9 -79t10.5 -77.5t38 -59t73.5 -23.5zM987 76q-82 -63 -182 -92t-193 -29q-121 0 -223 44t-176 121t-115 180t-39 224 q2 119 48.5 223.5t125 180.5t182 120t222.5 44q121 0 223.5 -41t175 -115t111.5 -174t35 -219q-2 -72 -22.5 -135.5t-58.5 -110.5t-93.5 -74.5t-126.5 -27.5q-53 0 -91 23.5t-55 57.5q-53 -51 -103 -66t-97 -15q-68 0 -112 31.5t-69.5 79.5t-32 106.5t4.5 111.5 q12 66 37.5 126.5t64.5 105.5t92 71.5t123 26.5q47 0 85 -10t71 -49q0 2 2 5t2 5v-2q2 10 3 18t1 19h106q-29 -164 -45 -255t-24 -134t-9 -51.5t-1 -10.5q-2 -10 -3.5 -19.5t-1.5 -17.5q0 -72 60 -71q45 0 80 24.5t59.5 62.5t36.5 84t14 91q2 94 -29.5 176t-91 141.5 t-141.5 94t-180 34.5q-92 0 -174 -37t-145.5 -100.5t-101.5 -148.5t-40 -179q-4 -104 32 -190t97.5 -147.5t141 -96.5t165.5 -35q78 0 162 23.5t150 75.5z" />
<glyph unicode="A" horiz-adv-x="894" d="M762 0l-86 233h-455l-86 -233h-133l395 1036h103l393 -1036h-131zM451 860l-195 -524h385z" />
<glyph unicode="B" horiz-adv-x="976" d="M870 287q0 -141 -89 -214t-232 -73h-397v1036h385q141 0 230 -73.5t89 -202.5q0 -82 -42 -141.5t-107 -86.5q74 -29 118.5 -91t44.5 -154zM731 758q0 92 -58.5 132t-144.5 40h-256v-348h256q86 0 144.5 42t58.5 134zM750 291q0 86 -56.5 134t-154.5 48h-267v-367h267 q98 0 154.5 49.5t56.5 135.5z" />
<glyph unicode="C" horiz-adv-x="931" d="M836 303q-25 -147 -122.5 -230t-238.5 -83q-76 0 -143.5 28.5t-120.5 81.5q-37 37 -57.5 76t-29.5 88t-11 110.5t-2 143.5t2 143.5t11 110.5t29.5 89t57.5 77q53 53 120.5 81t143.5 28q141 0 236.5 -84t124.5 -232h-121q-20 96 -82 152.5t-158 56.5q-51 0 -97 -18.5 t-79 -51.5q-25 -25 -38 -52t-20.5 -67t-9.5 -96.5t-2 -136.5t2 -135t9.5 -95t20.5 -67.5t38 -52.5q33 -35 79 -53.5t97 -18.5q96 0 159.5 57.5t84.5 151.5h112z" />
<glyph unicode="D" horiz-adv-x="1007" d="M897 528q0 -100 -11.5 -195t-51 -169t-114.5 -119t-200 -45h-368v1036h368q123 0 197 -42t113.5 -112.5t53 -163t13.5 -190.5zM776 528q0 84 -8 158t-35.5 128t-83 85t-147.5 31h-230v-824h230q96 0 151.5 35t83 93.5t33.5 134t6 159.5z" />
<glyph unicode="E" horiz-adv-x="882" d="M152 0v1036h669v-106h-549v-355h467v-106h-467v-363h549v-106h-669z" />
<glyph unicode="F" horiz-adv-x="829" d="M272 930v-369h449v-108h-449v-453h-120v1036h649v-106h-529z" />
<glyph unicode="G" horiz-adv-x="946" d="M844 379q0 -88 -20.5 -150.5t-69.5 -115.5q-113 -123 -277 -123q-76 0 -143.5 28.5t-120.5 81.5q-37 37 -57.5 76t-29.5 88t-11 110.5t-2 143.5t2 143.5t11 110.5t29.5 89t57.5 77q53 53 119.5 81t144.5 28q74 0 136.5 -24t109.5 -66t76.5 -100t42.5 -128h-119 q-23 98 -86.5 154.5t-159.5 56.5q-109 0 -176 -72q-25 -25 -38 -52.5t-20 -66t-9.5 -95t-2.5 -136.5t2.5 -135t9.5 -95t20 -67.5t38 -52.5q68 -72 176 -72q55 0 105.5 22.5t85.5 65.5q33 39 46 82t13 103v73h-254v105h371v-168v0z" />
<glyph unicode="H" horiz-adv-x="1040" d="M768 0v469h-496v-469h-120v1036h120v-461h496v461h121v-1036h-121z" />
<glyph unicode="I" horiz-adv-x="444" d="M162 0v1036h119v-1036h-119z" />
<glyph unicode="J" horiz-adv-x="720" d="M588 315q0 -76 -24.5 -136t-69.5 -102t-106.5 -64.5t-135.5 -22.5q-145 0 -246 98l82 78q27 -29 62.5 -49.5t101.5 -20.5q104 0 160.5 60.5t56.5 175.5v704h119v-721v0z" />
<glyph unicode="K" horiz-adv-x="954" d="M821 0l-329 545l-220 -256v-289h-120v1036h120v-581l490 581h151l-340 -401l385 -635h-137z" />
<glyph unicode="L" horiz-adv-x="813" d="M152 0v1036h120v-930h516v-106h-636z" />
<glyph unicode="M" horiz-adv-x="1220" d="M948 0v774l-282 -608h-105l-289 606v-772h-120v1036h108l356 -739l345 739h108v-1036h-121z" />
<glyph unicode="N" horiz-adv-x="1101" d="M850 0l-578 823v-823h-120v1036h100l577 -821v821h121v-1036h-100z" />
<glyph unicode="O" horiz-adv-x="942" d="M836 518q0 -82 -2.5 -143.5t-11.5 -110.5t-28.5 -88t-56.5 -76q-53 -53 -120.5 -81.5t-143.5 -28.5q-156 0 -266 110q-37 37 -57.5 76t-29.5 88t-11.5 110.5t-2.5 143.5t2.5 143.5t11.5 110.5t29.5 89t57.5 77q109 109 266 109q76 0 143.5 -28t120.5 -81q37 -37 56.5 -77 t28.5 -89t11.5 -110.5t2.5 -143.5zM717 518q0 80 -2 136.5t-9.5 95t-20.5 66.5t-36 52q-35 35 -81 53.5t-95 18.5q-53 0 -99 -18.5t-77 -53.5q-25 -25 -38 -52.5t-21.5 -66t-10.5 -95t-2 -136.5t2 -135t10.5 -94t21.5 -66.5t38 -52.5q31 -35 77 -54.5t99 -19.5q49 0 95 19.5 t81 54.5q23 25 36 52.5t20.5 66.5t9.5 94t2 135z" />
<glyph unicode="P" horiz-adv-x="913" d="M864 731q0 -141 -92 -223t-240 -82h-260v-426h-120v1036h380q147 0 239.5 -82t92.5 -223zM743 731q0 100 -61 149.5t-160 49.5h-250v-402h250q98 0 159.5 51.5t61.5 151.5z" />
<glyph unicode="Q" horiz-adv-x="942" d="M807 -49l-113 112q-96 -74 -221 -73q-156 0 -266 110q-37 37 -57.5 76t-29.5 88t-11.5 110.5t-2.5 143.5t2.5 143.5t11.5 110.5t29.5 89t57.5 77q109 109 266 109q76 0 143.5 -28t120.5 -81q37 -37 56.5 -77t28.5 -89t11.5 -110.5t2.5 -143.5q0 -74 -1 -131t-8.5 -103 t-21.5 -83t-41 -70l115 -113zM717 518q0 80 -2 136.5t-9.5 95t-20.5 66.5t-36 52q-35 35 -81 53.5t-95 18.5q-53 0 -99 -18.5t-77 -53.5q-25 -25 -38 -52.5t-21.5 -66t-10.5 -95t-2 -136.5t2 -135t10.5 -94t21.5 -66.5t38 -52.5q31 -35 77 -54.5t99 -19.5q74 0 139 47 l-129 129l72 72l123 -125q27 47 33 112.5t6 186.5z" />
<glyph unicode="R" horiz-adv-x="976" d="M770 0l-244 457h-254v-457h-120v1036h411q70 0 129.5 -19.5t102.5 -56t66.5 -90t23.5 -120.5q0 -115 -64.5 -186.5t-167.5 -94.5q61 -117 127 -234.5t127 -234.5h-137zM762 748q0 92 -58.5 137t-150.5 45h-281v-369h281q92 0 150.5 46.5t58.5 140.5z" />
<glyph unicode="S" horiz-adv-x="825" d="M764 285q0 -135 -98.5 -215t-257.5 -80q-117 0 -199 32.5t-154 106.5l76 80q63 -63 127 -88t152 -25q111 0 174 49.5t63 137.5q0 84 -51 121.5t-129 54.5l-119 16q-55 10 -104 31.5t-86 55.5t-58.5 82t-21.5 110q0 131 90 210.5t244 79.5q98 0 169.5 -27.5t137.5 -88.5 l-74 -74q-47 45 -102.5 67.5t-134.5 22.5q-102 0 -156.5 -52t-54.5 -136q0 -74 53 -114t127 -56l110 -19q55 -10 104.5 -30.5t88.5 -55.5t61.5 -84t22.5 -112z" />
<glyph unicode="T" horiz-adv-x="786" d="M451 930v-930h-119v930h-309v106h739v-106h-311z" />
<glyph unicode="U" horiz-adv-x="1007" d="M870 344q0 -78 -26.5 -143.5t-74.5 -112.5t-115.5 -72.5t-149.5 -25.5t-149.5 25.5t-116 72.5t-75 112.5t-26.5 143.5v692h123v-684q0 -117 63.5 -186.5t180.5 -69.5t181.5 70t64.5 186v684h120v-692v0z" />
<glyph unicode="V" horiz-adv-x="819" d="M459 0h-101l-350 1036h127l273 -821l272 821h131z" />
<glyph unicode="W" horiz-adv-x="1259" d="M975 0h-113l-233 825l-232 -825h-114l-273 1036h129l205 -827q57 205 115.5 413.5t115.5 413.5h109l231 -827q49 205 101.5 413.5t103.5 413.5h129z" />
<glyph unicode="X" horiz-adv-x="792" d="M651 0l-256 430l-258 -430h-139l330 530l-308 506h142l233 -399l236 399h139l-307 -506l330 -530h-142z" />
<glyph unicode="Y" horiz-adv-x="770" d="M446 430v-430h-120v430l-320 606h131l248 -487l248 487h131z" />
<glyph unicode="Z" horiz-adv-x="817" d="M74 0v111l526 819h-506v106h647v-96l-532 -834h532v-106h-667z" />
<glyph unicode="[" horiz-adv-x="466" d="M141 -117v1360h279v-102h-166v-1157h166v-101h-279z" />
<glyph unicode="\" horiz-adv-x="544" d="M442 -117l-448 1356h112l451 -1356h-115z" />
<glyph unicode="]" horiz-adv-x="466" d="M49 -117v101h166v1157h-166v102h281v-1360h-281z" />
<glyph unicode="^" horiz-adv-x="829" d="M608 565l-192 363l-195 -363h-117l261 484h102l258 -484h-117z" />
<glyph unicode="_" horiz-adv-x="829" d="M0 -272v92h829v-92h-829z" />
<glyph unicode="`" horiz-adv-x="772" d="M379 829l-174 244h131l158 -244h-115z" />
<glyph unicode="a" horiz-adv-x="796" d="M563 0v76q-47 -47 -96 -66.5t-127 -19.5q-53 0 -104.5 12t-90.5 40t-62.5 72t-23.5 105q0 104 69 168t202 64h233v69q0 86 -46 128t-152 42q-68 0 -115 -20.5t-84 -67.5l-76 70q31 33 59.5 55.5t61.5 35.5t70.5 18t85.5 5q311 0 311 -258v-528h-115zM563 354h-219 q-174 0 -174 -133q0 -68 43 -100.5t135 -32.5q51 0 94 8t82 45t39 133v80z" />
<glyph unicode="b" horiz-adv-x="841" d="M762 389q0 -72 -12.5 -143.5t-46 -129t-91 -92t-149.5 -34.5q-66 0 -125 28.5t-100 90.5v-109h-115v1126h115v-436q49 59 104 77.5t121 18.5q88 0 146.5 -33.5t92 -89t47 -127t13.5 -147.5zM645 389q0 57 -7 110.5t-29.5 95.5t-62.5 67.5t-106 25.5t-105.5 -25.5 t-61 -67.5t-28.5 -95.5t-7 -110.5q0 -47 12 -98t37.5 -96t63.5 -74t89 -29q66 0 106 24.5t62.5 66.5t29.5 95.5t7 110.5z" />
<glyph unicode="c" horiz-adv-x="753" d="M694 106q-61 -66 -118.5 -91t-139.5 -25q-74 0 -137 24.5t-109.5 74.5t-73 125t-26.5 175t26.5 175t73 124t109.5 73.5t137 24.5q82 0 139.5 -24.5t118.5 -89.5l-78 -72q-45 47 -83.5 67.5t-96.5 20.5q-63 0 -108 -25.5t-73 -66.5t-40 -95.5t-12 -111.5q0 -53 11 -106.5 t39 -95.5t73 -68.5t110 -26.5q57 0 96 19.5t84 68.5l78 -74v0z" />
<glyph unicode="d" horiz-adv-x="841" d="M80 389q0 76 13 147.5t47 127t91.5 89t147.5 33.5q66 0 121 -18t104 -78v436h115v-1126h-115v109q-41 -61 -100.5 -90t-124.5 -29q-92 0 -149.5 34.5t-91.5 92t-46 129t-12 143.5zM197 389q0 -57 7 -110.5t29.5 -95.5t63.5 -66.5t106 -24.5q49 0 87 29t64 74t38 96t12 98 q0 57 -7 110.5t-28.5 95.5t-60.5 67.5t-105 25.5t-106.5 -25.5t-63 -67.5t-29.5 -95.5t-7 -110.5z" />
<glyph unicode="e" horiz-adv-x="802" d="M193 360q0 -129 59 -199.5t172 -70.5q70 0 115 20.5t92 67.5l78 -65q-59 -61 -123 -92t-164 -31q-156 0 -250 96t-94 303q0 190 86 293.5t237 103.5q154 0 239 -100t85 -274v-52h-532zM608 444q-2 45 -14 89.5t-37 79t-62.5 56t-93.5 21.5q-55 0 -93 -20.5t-62.5 -54 t-37.5 -77.5t-15 -94h415z" />
<glyph unicode="f" horiz-adv-x="442" d="M254 690v-690h-113v690h-100v88h100v146q0 88 49.5 149.5t149.5 61.5h82v-99h-62q-55 0 -80.5 -30.5t-25.5 -83.5v-144h168v-88h-168z" />
<glyph unicode="g" horiz-adv-x="841" d="M719 -35q0 -74 -21.5 -134t-64.5 -105t-105.5 -70t-142.5 -25q-90 0 -150.5 25t-121.5 78l73 73q23 -18 43.5 -32.5t42 -24.5t48 -15t61.5 -5q117 0 170 69.5t53 169.5v121q-51 -59 -106.5 -77.5t-120.5 -18.5q-86 0 -143.5 34.5t-90 91t-46 129.5t-13.5 148 q0 72 12.5 141.5t44 125t89 89t149.5 33.5q66 0 123 -19t104 -83v94h113v-813zM604 397q0 51 -8 103.5t-31.5 93.5t-62.5 67.5t-101 26.5q-68 0 -107.5 -25.5t-61 -66.5t-28.5 -93t-7 -106q0 -55 7 -109.5t29.5 -96t63.5 -68.5t109 -27q66 0 104.5 27t60 68.5t27.5 96 t6 109.5z" />
<glyph unicode="h" horiz-adv-x="851" d="M623 0v481q0 104 -51.5 155.5t-139.5 51.5q-84 0 -139 -57.5t-55 -149.5v-481h-115v1126h115v-434q43 49 98 71.5t121 22.5q133 0 205.5 -76.5t72.5 -209.5v-500h-112z" />
<glyph unicode="i" horiz-adv-x="397" d="M254 0v778h-113v-778h113zM121 1063q0 33 22.5 54.5t55.5 21.5t55 -21.5t22 -54.5t-22.5 -55.5t-54.5 -22.5q-33 0 -55.5 22.5t-22.5 55.5z" />
<glyph unicode="j" horiz-adv-x="397" d="M254 -160v938h-113v-934q0 -57 -22.5 -85.5t-81.5 -28.5h-62v-99h80q104 0 151.5 59.5t47.5 149.5zM121 1063q0 33 22.5 54.5t55.5 21.5t55 -21.5t22 -54.5t-22.5 -55.5t-54.5 -22.5q-33 0 -55.5 22.5t-22.5 55.5z" />
<glyph unicode="k" horiz-adv-x="800" d="M635 0l-246 399l-151 -174v-225h-115v1126h115v-753l352 405h141l-264 -297l309 -481h-141z" />
<glyph unicode="l" horiz-adv-x="413" d="M322 0q-104 0 -151.5 58.5t-47.5 150.5v917h117v-915q0 -55 22.5 -84t81.5 -29h62v-98h-84z" />
<glyph unicode="m" horiz-adv-x="1366" d="M1122 0v479q0 104 -50 156.5t-140 52.5q-86 0 -140.5 -51t-54.5 -143v-494h-112v479q0 104 -52.5 156.5t-140.5 52.5q-41 0 -75.5 -19.5t-61.5 -51t-42 -72.5t-15 -84v-461h-115v778h115v-104q39 55 96 83.5t123 28.5q168 0 239 -129q92 129 258 129q61 0 112.5 -20.5 t90.5 -59t60.5 -92t21.5 -116.5v-498h-117z" />
<glyph unicode="n" horiz-adv-x="851" d="M623 0v479q0 104 -52.5 156.5t-138.5 52.5q-37 0 -71.5 -18.5t-62.5 -49t-44 -71.5t-16 -84v-465h-115v778h115v-104q39 53 94 82.5t125 29.5q125 0 201.5 -79.5t76.5 -208.5v-498h-112z" />
<glyph unicode="o" horiz-adv-x="827" d="M743 389q0 -76 -16 -147.5t-55 -128t-101.5 -90t-156.5 -33.5q-90 0 -152.5 31.5t-101.5 87t-57.5 128t-18.5 152.5q0 76 16.5 147.5t55.5 127t102.5 89t155.5 33.5q90 0 152.5 -31.5t102.5 -86t57 -127t17 -152.5zM631 389q0 51 -8.5 104.5t-31 96.5t-65.5 70.5 t-112 27.5q-61 0 -103.5 -26.5t-68 -68.5t-35.5 -95.5t-10 -108.5q0 -49 9 -102.5t33.5 -96.5t66.5 -70.5t108 -27.5q63 0 105 25.5t66.5 66.5t35 95.5t10.5 109.5z" />
<glyph unicode="p" horiz-adv-x="841" d="M762 389q0 -78 -13.5 -149.5t-47 -127t-92 -89t-146.5 -33.5q-66 0 -121 19.5t-104 78.5v-436h-115v1126h115v-108q41 61 100 88.5t125 27.5q92 0 149.5 -34.5t91 -91t46 -128t12.5 -143.5zM645 389q0 57 -7 110.5t-29.5 94.5t-62.5 66.5t-106 25.5q-51 0 -89 -28.5 t-63.5 -73.5t-37.5 -97.5t-12 -97.5q0 -57 7 -110.5t28.5 -95.5t61.5 -67.5t105 -25.5q66 0 106 25.5t62.5 67.5t29.5 95.5t7 110.5z" />
<glyph unicode="q" horiz-adv-x="841" d="M80 389q0 72 12 143.5t46 128t91.5 91t149.5 34.5q66 0 125 -27.5t100 -88.5v108h115v-1126h-115v436q-49 -59 -104.5 -78.5t-120.5 -19.5q-90 0 -147.5 33.5t-91.5 89t-47 127t-13 149.5zM197 389q0 -57 7 -110.5t29.5 -95.5t63.5 -67.5t106 -25.5q66 0 105 25.5 t60.5 67.5t28.5 95.5t7 110.5q0 45 -12 97.5t-38 97.5t-63.5 73.5t-87.5 28.5q-66 0 -106.5 -25.5t-63 -66.5t-29.5 -94.5t-7 -110.5z" />
<glyph unicode="r" horiz-adv-x="550" d="M506 670q-35 18 -82 18q-41 0 -75 -17.5t-58.5 -47t-38.5 -67.5t-14 -79v-477h-115v778h115v-104q33 49 92 80.5t127 31.5q35 0 64.5 -5t58.5 -19z" />
<glyph unicode="s" horiz-adv-x="745" d="M653 227q0 -113 -82 -175t-211 -62q-88 0 -158.5 25.5t-129.5 86.5l67 76q43 -49 99.5 -69.5t121.5 -20.5q90 0 139.5 35t49.5 104q0 104 -115 113l-121 10q-104 10 -158.5 61.5t-54.5 149.5q0 106 75 165.5t187 59.5q78 0 144.5 -20.5t114.5 -60.5l-70 -76 q-76 61 -191 61q-76 0 -115.5 -33.5t-39.5 -93.5q0 -49 28.5 -77.5t94.5 -36.5l114 -11q45 -4 84 -17t68 -38t44 -63t15 -93z" />
<glyph unicode="t" horiz-adv-x="475" d="M336 0q-100 0 -149.5 60.5t-49.5 148.5v481h-98v88h98v244h113v-244h166v-88h-166v-479q0 -53 25.5 -83t80.5 -30h60v-98h-80z" />
<glyph unicode="u" horiz-adv-x="854" d="M231 778v-479q0 -104 52.5 -156.5t138.5 -52.5q39 0 74.5 18.5t62.5 49t42 71.5t15 84v465h113v-778h-113v104q-39 -53 -94 -83.5t-125 -30.5q-61 0 -112.5 21.5t-88 59.5t-57 91t-20.5 117v499h112z" />
<glyph unicode="v" horiz-adv-x="776" d="M440 0h-102l-289 778h125l213 -624l217 624h125z" />
<glyph unicode="w" horiz-adv-x="1220" d="M926 0h-109l-207 604l-204 -604h-107l-250 778h125l180 -624l207 624h98l207 -624l181 624h124z" />
<glyph unicode="x" horiz-adv-x="731" d="M553 0l-186 303l-189 -303h-139l264 397l-252 381h135l181 -286l176 286h137l-252 -381l264 -397h-139z" />
<glyph unicode="y" horiz-adv-x="776" d="M362 -207q-25 -68 -78 -105.5t-130 -37.5h-50v98h35q59 0 85 22.5t44 75.5l66 170l-285 762h125l215 -624l215 624h125z" />
<glyph unicode="z" horiz-adv-x="716" d="M76 0v98l432 580h-410v100h543v-96l-434 -580h434v-102h-565z" />
<glyph unicode="{" horiz-adv-x="509" d="M399 -117q-59 0 -97 11.5t-62 35.5q-27 27 -37 61t-10 95v303q0 63 -29 96q-12 10 -30.5 18.5t-41.5 8.5h-43v102h43q23 0 41.5 8.5t30.5 20.5q29 29 29 94v303q0 61 10 95t37 61q25 27 62.5 37t96.5 10h60v-102h-37q-41 0 -61.5 -3t-32.5 -16q-14 -12 -18.5 -36.5 t-4.5 -67.5v-297q0 -68 -26.5 -101.5t-71.5 -56.5q45 -23 71.5 -56.5t26.5 -103.5v-294q0 -45 4 -68t19 -37q12 -12 32.5 -16t61.5 -4h37v-101h-60z" />
<glyph unicode="|" horiz-adv-x="509" d="M197 -117v1360h114v-1360h-114z" />
<glyph unicode="}" horiz-adv-x="509" d="M49 -117v101h37q43 0 62.5 4t31.5 16q14 14 18.5 36.5t4.5 68.5v294q0 70 26.5 104t73.5 56q-47 23 -73.5 56.5t-26.5 101.5v297q0 43 -4 67.5t-19 36.5q-12 12 -31.5 15.5t-62.5 3.5h-37v102h62q59 0 96 -10t63 -37q27 -27 36 -60.5t9 -95.5v-303q0 -66 29 -94 q12 -12 30.5 -20.5t41.5 -8.5h43v-102h-43q-23 0 -41.5 -8t-30.5 -19q-29 -33 -29 -96v-303q0 -61 -9 -95t-36 -61q-27 -25 -63.5 -36t-95.5 -11h-62z" />
<glyph unicode="~" horiz-adv-x="829" d="M764 438q-66 -68 -109 -87t-94 -19q-43 0 -83 13t-85 34q-35 16 -63.5 27.5t-61.5 11.5q-16 0 -30.5 -3t-28.5 -10.5t-31.5 -21.5t-42.5 -37l-69 72q66 66 108.5 87t95.5 21q41 0 80 -15t86 -36q35 -14 63.5 -25.5t61.5 -11.5t58.5 12.5t72.5 59.5l72 -72v0z" />
<glyph unicode="&#xa2;" horiz-adv-x="802" d="M688 289q-59 -68 -112.5 -95.5t-112.5 -31.5v-139h-98v145q-131 16 -202 113.5t-71 250.5q0 158 70.5 255.5t202.5 115.5v113h98v-111q59 -4 112.5 -32.5t112.5 -90.5l-78 -65q-39 47 -72.5 68.5t-74.5 25.5v-553q82 6 149 94zM365 801q-92 -25 -128 -100.5t-36 -168.5 q0 -41 8 -82.5t26.5 -79.5t50 -67t79.5 -39v537z" />
<glyph unicode="&#xa3;" horiz-adv-x="790" d="M145 0v483h-100v88h100v156q0 147 92.5 236.5t247.5 89.5q152 0 265 -105l-84 -78q-33 33 -74 56.5t-107 23.5q-109 0 -165 -61.5t-56 -175.5v-142h240v-88h-240v-381h477v-102h-596z" />
<glyph unicode="&#xa5;" horiz-adv-x="856" d="M569 584h174v-90h-221l-33 -64v-70h254v-90h-254v-270h-120v270h-260v90h260v70l-35 64h-225v90h176l-236 452h131l248 -487l248 487h131z" />
<glyph unicode="&#xa9;" horiz-adv-x="1333" d="M1221 532q0 -115 -43 -215t-119 -174.5t-176.5 -118.5t-216.5 -44q-115 0 -215.5 44t-176 118.5t-118.5 175t-43 214.5q0 117 43 217.5t118.5 176t176 118.5t215.5 43q117 0 217 -43t176 -118.5t119 -176t43 -217.5zM1114 532q0 92 -36 175.5t-96 144.5t-142 97t-174 36 t-173 -36t-141.5 -97t-96.5 -144t-36 -176q0 -90 36 -171.5t96.5 -144t141 -99.5t173.5 -37q92 0 174 37t142 99.5t96 144t36 171.5zM891 309q-53 -47 -97 -66.5t-110 -19.5q-70 0 -121 24.5t-85 67.5t-50 100.5t-16 121.5q0 63 16 120.5t50 100.5t85 67.5t121 24.5 q66 0 113 -22.5t104 -69.5l-74 -72q-41 37 -71.5 51.5t-71.5 14.5q-47 0 -79 -17.5t-51 -47.5t-27.5 -68.5t-8.5 -81.5t8.5 -81t27.5 -68t51 -47t79 -17q41 0 72.5 12t72.5 53l64 -74z" />
<glyph unicode="&#xab;" horiz-adv-x="849" d="M401 428l332 332v-142l-190 -190l190 -190v-142zM45 428l332 332v-142l-191 -190l191 -190v-142z" />
<glyph unicode="&#xad;" horiz-adv-x="688" d="M127 371v106h434v-106h-434z" />
<glyph unicode="&#xae;" horiz-adv-x="1333" d="M1221 532q0 -115 -43 -215t-119 -174.5t-176.5 -118.5t-216.5 -44q-115 0 -215.5 44t-176 118.5t-118.5 175t-43 214.5q0 117 43 217.5t118.5 176t176 118.5t215.5 43q117 0 217 -43t176 -118.5t119 -176t43 -217.5zM1114 532q0 92 -36 175.5t-96 144.5t-142 97t-174 36 t-173 -36t-141.5 -97t-96.5 -144t-36 -176q0 -90 36 -171.5t96.5 -144t141 -99.5t173.5 -37q92 0 174 37t142 99.5t96 144t36 171.5zM793 231l-140 234h-59v-234h-105v605h203q39 0 74 -14.5t61.5 -39t42 -59.5t15.5 -74q0 -66 -31 -108.5t-84 -63.5l150 -246h-127zM782 649 q0 39 -27.5 63.5t-70.5 24.5h-90v-176h90q43 0 70.5 23.5t27.5 64.5z" />
<glyph unicode="&#xbb;" horiz-adv-x="849" d="M117 96v142l190 190l-190 190v142l332 -332zM473 96v142l191 190l-191 190v142l334 -332z" />
<glyph unicode="&#xbc;" horiz-adv-x="1196" d="M1061 96v-96h-84v96h-260v64l239 467h91l-234 -457h164v170h84v-170h80v-74h-80zM381 0h-96l518 1036h94zM223 412v526l-123 -98v88l129 108h80v-624h-86z" />
<glyph unicode="&#xbd;" horiz-adv-x="1196" d="M764 0v68l258 307q16 23 24.5 41t8.5 43q0 47 -28 73.5t-75 26.5q-41 0 -72.5 -25.5t-31.5 -84.5h-84q2 80 52 132t136 52t137.5 -48t51.5 -126q0 -39 -13.5 -68t-42.5 -63l-219 -252h275v-76h-377zM360 0h-96l520 1036h97zM223 412v526l-123 -98v88l129 108h80v-624h-86 z" />
<glyph unicode="&#xbe;" horiz-adv-x="1196" d="M1081 96v-96h-86v96h-258v64q57 115 119 232.5t119 234.5h92l-236 -457h164v170h86v-170h78v-74h-78zM449 0h-97q125 252 262.5 518t262.5 518h94zM481 592q0 -92 -57 -138t-143 -46q-82 0 -140.5 43t-64.5 137h88q6 -59 41 -83t76 -24q49 0 81.5 29t32.5 82 q0 49 -29.5 76.5t-91.5 27.5h-18v74h18q57 0 83 25.5t26 72.5q0 51 -32 77t-72 26q-100 0 -107 -101h-86q10 84 62.5 130.5t130.5 46.5q86 0 138 -47.5t52 -129.5q0 -41 -19.5 -75.5t-54.5 -57.5q86 -45 86 -145z" />
<glyph unicode="&#xd7;" horiz-adv-x="829" d="M664 102l-250 250l-248 -250l-74 74l250 250l-250 250l74 72l248 -250l250 250l73 -72l-250 -250l250 -250z" />
<glyph unicode="&#xf7;" horiz-adv-x="829" d="M80 371v106h668v-106h-668zM334 692q0 35 22.5 58.5t57.5 23.5t58.5 -23.5t23.5 -58.5q0 -33 -23.5 -56.5t-58.5 -23.5t-57.5 23.5t-22.5 56.5zM334 158q0 35 22.5 58.5t57.5 23.5t58.5 -23.5t23.5 -58.5t-23.5 -57.5t-58.5 -22.5t-57.5 22.5t-22.5 57.5z" />
<glyph unicode="&#xe01;" horiz-adv-x="905" d="M248 524v-524h-119v500l-78 110q133 225 383 226q180 0 268.5 -84t88.5 -238v-514h-119v500q0 127 -61.5 179t-178.5 52q-61 0 -126.5 -25.5t-117.5 -89.5z" />
<glyph unicode="&#xe02;" horiz-adv-x="780" d="M59 743q31 41 77 66t93 25q86 0 133.5 -44.5t47.5 -121.5q0 -57 -33 -100.5t-72 -80.5q-35 -35 -57.5 -62.5t-22.5 -84.5v-78q0 -78 37 -124t123 -46q82 0 118 46t36 124v565h123v-569q0 -121 -77 -194.5t-200 -73.5q-127 0 -201.5 73.5t-79.5 194.5v96q0 35 7.5 59.5 t19.5 44t29.5 38t38.5 39.5q35 33 64.5 65.5t29.5 67.5q0 29 -19.5 45t-48.5 16q-18 0 -37.5 -12t-33.5 -33z" />
<glyph unicode="&#xe03;" horiz-adv-x="780" d="M225 262q0 -78 37 -123t123 -45q82 0 118 45t36 123v565h123v-569q0 -121 -77 -194.5t-200 -73.5q-127 0 -201.5 73.5t-79.5 194.5v86q0 35 8.5 65.5t30.5 53.5l168 166q16 16 23.5 31.5t7.5 27.5q0 20 -12.5 33.5t-32.5 13.5q-25 0 -64 -28l-45 -37q-12 -10 -27.5 -10.5 t-27.5 10.5l-127 94l68 76l90 -62l10 8q61 47 127 48q66 0 108 -40t42 -104q0 -35 -17.5 -75t-56.5 -76l-129 -131q-16 -16 -19.5 -43t-3.5 -33v-70z" />
<glyph unicode="&#xe04;" horiz-adv-x="917" d="M233 0h-118v524q0 74 23.5 132.5t66.5 99.5q49 47 119.5 63.5t136.5 16.5t136.5 -16.5t119.5 -63.5q43 -41 66.5 -99.5t23.5 -132.5v-524h-119v508q0 117 -59.5 170t-167.5 53q-109 0 -168.5 -53t-59.5 -170v-29q33 16 95 17h131v-99h-115q-66 0 -88.5 -28.5t-22.5 -87.5 v-281z" />
<glyph unicode="&#xe05;" horiz-adv-x="935" d="M115 535q0 74 24.5 132t67.5 99q57 49 143 70l117 -115l119 115q86 -18 143 -70q92 -86 92 -231v-535h-119v518q0 131 -90 187l-100 -91q-18 -16 -44 -16t-42 16l-100 91q-90 -55 -90 -187v-39q16 8 38.5 12.5t55.5 4.5h135v-99h-119q-66 0 -88 -28.5t-22 -87.5v-281 h-121v535z" />
<glyph unicode="&#xe06;" horiz-adv-x="890" d="M233 319q0 -106 57.5 -164.5t153.5 -58.5q209 0 209 223v510h123v-528q0 -74 -24.5 -132t-67.5 -99q-82 -78 -227 -78q-66 0 -123.5 18.5t-97.5 59.5v-70h-121v344q0 37 9 68.5t32 52.5l166 164q31 29 30 59q0 20 -12 33.5t-33 13.5q-25 0 -63 -28l-45 -37 q-12 -10 -27.5 -10.5t-28.5 10.5l-127 94l68 76l90 -62l10 8q61 47 127 48q66 0 108 -40t42 -104q0 -35 -17.5 -75t-56.5 -76l-129 -131q-18 -16 -21.5 -43t-3.5 -39v-7z" />
<glyph unicode="&#xe07;" horiz-adv-x="641" d="M88 219q16 -59 59 -93t103 -34q82 0 119 46t37 124v467h-119v98h239v-569q0 -129 -71.5 -198.5t-204.5 -69.5q-106 0 -171 47t-95 131z" />
<glyph unicode="&#xe08;" horiz-adv-x="761" d="M526 281q0 59 -21.5 87.5t-86.5 28.5h-117v101h119q63 0 106 -27v31q0 229 -215 229q-68 0 -126 -32.5t-83 -100.5l-104 59q39 88 120 133.5t193 45.5q147 0 241.5 -78t94.5 -234v-524h-121v281z" />
<glyph unicode="&#xe09;" horiz-adv-x="890" d="M111 662q39 88 122.5 131t196.5 43q74 0 136.5 -19.5t108.5 -57.5t72.5 -96.5t26.5 -136.5v-526h-121v74q-90 -82 -225 -82q-147 0 -231 78q-90 86 -91 231v203h121v-185q0 -111 53.5 -168t157.5 -57t159.5 59.5t55.5 165.5v191q0 223 -223 223q-68 0 -127 -29.5 t-88 -93.5z" />
<glyph unicode="&#xe0a;" horiz-adv-x="784" d="M274 594q37 37 37 70q0 37 -21.5 53t-53.5 16q-20 0 -45 -14t-46 -31l-90 62q82 82 183 81q86 0 135 -45t49 -122q0 -41 -14.5 -74t-49.5 -68l-110 -110q-18 -18 -20.5 -45t-2.5 -35v-49q0 -78 37 -133.5t123 -55.5q82 0 118 45t36 123v299q0 31 -22.5 55.5t-43.5 36.5 q-23 10 -32 24.5t24 47.5l235 229l82 -77l-190 -185q18 -14 44 -46t26 -85v-303q0 -119 -77 -193.5t-200 -74.5q-63 0 -114.5 22.5t-88.5 62.5t-56.5 92t-21.5 112v67q0 37 9.5 70t29.5 51z" />
<glyph unicode="&#xe0b;" horiz-adv-x="811" d="M567 561q0 35 -23.5 57.5t-45.5 34.5q-23 12 -30 24.5t24 47.5l229 229l80 -75l-180 -183q16 -12 40.5 -47t24.5 -88v-303q0 -119 -74.5 -193.5t-199.5 -74.5q-63 0 -114.5 22.5t-87.5 62.5t-56.5 92t-20.5 112v67q0 35 10.5 67.5t30.5 53.5l143 141q35 35 35 68 q0 23 -15 40t-38 17q-25 0 -57 -26l-45 -37q-10 -10 -27.5 -10.5t-28.5 10.5l-129 96l68 74l90 -62l12 10q31 27 62.5 36.5t60.5 9.5q33 0 62.5 -12.5t51 -34t34 -50t12.5 -61.5q0 -35 -22.5 -79t-59.5 -79l-107 -106q-16 -18 -20 -45t-4 -35v-49q0 -78 38 -133.5t122 -55.5 q82 0 118.5 45t36.5 123v299z" />
<glyph unicode="&#xe0c;" horiz-adv-x="1394" d="M129 500l-78 110q133 225 383 226q180 0 268.5 -84t88.5 -238v-195q0 -104 53 -164.5t139 -60.5q88 0 133 59.5t45 165.5v508h119v-526q0 -154 -78 -231.5t-207 -77.5q-61 0 -114.5 19.5t-89.5 56.5v-68h-119v500q0 127 -61.5 179t-178.5 52q-61 0 -126.5 -25.5 t-117.5 -89.5l60 -92v-325q0 -41 13 -67t63 -26h75v-106h-92q-96 0 -137 52t-41 145v303z" />
<glyph unicode="&#xe0d;" horiz-adv-x="1380" d="M782 0q0 -61 41 -61h443v-99h-459q-25 0 -50.5 6.5t-45 23.5t-32.5 48t-13 82h116zM129 500l-78 110q133 225 383 226q180 0 268.5 -84t88.5 -238v-141q0 -109 45 -167.5t133 -58.5t133 58.5t45 167.5v454h119v-473q0 -63 -16.5 -119.5t-51.5 -99.5t-90 -67.5t-135 -24.5 q-152 0 -226.5 82t-74.5 229v146q0 127 -61.5 178t-178.5 51q-61 0 -126.5 -24.5t-117.5 -88.5l60 -94v-323q0 -41 13 -67t63 -26h75v-106h-92q-96 0 -137 52t-41 145v303z" />
<glyph unicode="&#xe0e;" horiz-adv-x="940" d="M285 195q0 -66 -22.5 -105t-54.5 -59.5t-68 -26.5t-62 -6l-21 106q41 -2 63.5 8.5t32 28t10.5 37t1 37.5v287l-78 110q131 223 383 224q180 0 268 -83t90 -237v-676q0 -33 -10 -57.5t-23.5 -41.5t-26.5 -27.5t-19 -12.5q-23 -10 -51.5 -10t-55.5 10l-188 86q-10 6 -25 0 q-47 -23 -102.5 -51.5t-104.5 -50.5l-63 77l239 119q25 12 41.5 11t42.5 -11l201 -88q8 -4 16.5 4t8.5 25v680q0 127 -61.5 179t-178.5 52q-66 0 -128.5 -22.5t-115.5 -87.5l62 -93v-335z" />
<glyph unicode="&#xe0f;" horiz-adv-x="942" d="M707 502q0 127 -61.5 179t-178.5 52q-66 0 -127 -22.5t-117 -87.5l62 -93v-335q0 -66 -22.5 -105t-54.5 -59.5t-68 -26.5t-62 -6l-21 106q41 -2 63.5 8.5t32 28t10.5 37t1 37.5v287l-78 110q131 223 383 224q180 0 268 -83t90 -237v-674q0 -35 -15 -67.5t-42 -55 t-60.5 -27.5t-70.5 15l-135 76q-16 8 -31 0l-125 -76q-27 -16 -48 -13t-40 15l-186 133l96 56l129 -93q10 -6 20 0l127 80q23 16 42.5 15.5t41.5 -15.5l140 -80q12 -4 24.5 6.5t12.5 32.5v658z" />
<glyph unicode="&#xe10;" horiz-adv-x="761" d="M526 281q0 59 -21.5 87.5t-86.5 28.5h-117v101h119q63 0 106 -27v33q0 227 -215 227q-68 0 -125 -33.5t-82 -101.5l-110 53q41 92 123 139.5t194 47.5q57 0 100.5 -9.5t84.5 -31.5l168 161l84 -77l-166 -158q31 -37 48 -86t17 -111v-524h-121v281zM526 -66h121v-75 q0 -43 -14.5 -71t-31.5 -44t-33.5 -23.5t-22.5 -9.5q-23 -6 -46.5 -4t-43.5 19l-74 59q-16 12 -29 0l-61 -57q-20 -18 -49 -18.5t-54 18.5l-149 114l80 58l110 -84q10 -10 21 0l61 57q25 23 56.5 23t56.5 -23l76 -66q6 2 15 10.5t11 26.5v90z" />
<glyph unicode="&#xe11;" horiz-adv-x="915" d="M266 412q-16 -16 -19 -44t-3 -36v-332h-123v346q0 76 41 117l168 164q16 14 22 30.5t6 30.5q0 18 -11 32.5t-32 14.5q-29 0 -63 -28l-47 -37q-25 -20 -53 0l-132 98l72 72l88 -62l13 10q35 29 66.5 39.5t62.5 10.5q47 0 82.5 -22.5t52.5 -63.5q25 25 47 44t45 42 q117 -2 184.5 -65.5t67.5 -186.5v-586h-119v580q0 59 -19.5 99t-70.5 52z" />
<glyph unicode="&#xe12;" horiz-adv-x="1386" d="M664 518q0 137 -89 191l-92 -93q-16 -16 -44.5 -16t-45.5 16l-92 93q-88 -53 -88 -191v-293q0 -59 22.5 -89t86.5 -30h77v-106h-92q-109 0 -162 60.5t-53 162.5v312q0 74 24.5 132t67.5 99q53 49 142 68l110 -113l111 113q86 -16 143 -68q92 -86 92 -231v-216 q0 -104 53.5 -164.5t139.5 -60.5q88 0 133 59.5t45 165.5v508h119v-526q0 -154 -78 -231.5t-207 -77.5q-61 0 -114.5 19.5t-90.5 56.5v-68h-118v518z" />
<glyph unicode="&#xe13;" horiz-adv-x="1394" d="M129 502l-78 110q131 223 383 224q180 0 268.5 -83t88.5 -237v-197q0 -106 45 -165.5t133 -59.5q86 0 139 60.5t53 164.5v508h119v-827h-119v68q-37 -31 -93 -53.5t-112 -22.5q-129 0 -206.5 77.5t-77.5 231.5v201q0 127 -61.5 179t-178.5 52q-61 0 -126.5 -25.5 t-117.5 -89.5l60 -92v-327q0 -41 13 -67t63 -26h75v-106h-92q-96 0 -137 52t-41 145v305z" />
<glyph unicode="&#xe14;" horiz-adv-x="919" d="M115 524q0 74 23.5 132.5t66.5 99.5q49 47 119.5 63.5t136.5 16.5t136.5 -16.5t119.5 -63.5q43 -41 66.5 -99.5t23.5 -132.5v-524h-119v508q0 117 -59.5 170t-167.5 53q-109 0 -168.5 -53t-59.5 -170v-283q0 -59 24 -89t87 -30h78v-106h-92q-109 0 -162 60.5t-53 162.5 v301z" />
<glyph unicode="&#xe15;" horiz-adv-x="919" d="M686 518q0 135 -88 189l-92 -91q-18 -18 -45 -17t-45 17l-92 91q-88 -53 -88 -189v-293q0 -59 22.5 -89t85.5 -30h78v-106h-92q-109 0 -162 60.5t-53 162.5v312q0 74 24.5 132t67.5 99q53 47 141 70l111 -115l110 115q86 -18 144 -70q92 -86 92 -231v-535h-119v518v0z " />
<glyph unicode="&#xe16;" horiz-adv-x="905" d="M129 500l-78 110q133 225 383 226q180 0 268.5 -84t88.5 -238v-514h-119v500q0 127 -61.5 179t-178.5 52q-61 0 -126.5 -25.5t-117.5 -89.5l60 -92v-325q0 -41 13 -67t63 -26h75v-106h-92q-96 0 -137 52t-41 145v303z" />
<glyph unicode="&#xe17;" horiz-adv-x="880" d="M645 0v510q0 111 -55 166t-148 55q-39 0 -75.5 -19.5t-66.5 -52t-47 -75.5t-17 -90v-494h-121v827h121v-110q41 55 100 88t133 33q133 0 215 -85t82 -223v-530h-121z" />
<glyph unicode="&#xe18;" horiz-adv-x="811" d="M102 375h119v-178q0 -45 52.5 -74t113.5 -29q115 0 173 47t58 121q0 55 -34.5 93t-106.5 42l-139 15q-125 12 -193.5 64t-68.5 142q0 98 88 158t223 60q88 0 169 -26t146 -73l-79 -78q-53 35 -111.5 54.5t-124.5 19.5q-88 0 -141 -28.5t-53 -86.5q0 -88 155 -102l135 -12 q53 -4 100.5 -19.5t81 -44t53 -72.5t19.5 -106q0 -57 -24.5 -106.5t-69.5 -86t-109.5 -58t-144.5 -21.5q-49 0 -100 12t-92 36.5t-68 63.5t-27 93v180z" />
<glyph unicode="&#xe19;" horiz-adv-x="880" d="M236 827v-510q0 -111 55 -166t147 -55q39 0 76 19.5t66.5 52.5t47 76t17.5 90v493h121v-827h-121v111q-41 -55 -100.5 -88t-132.5 -33q-133 0 -215 85t-82 222v530h121z" />
<glyph unicode="&#xe1a;" horiz-adv-x="880" d="M440 -8q-145 0 -235 80t-90 229v526h121v-508q0 -111 50 -168t154 -57t154.5 57.5t50.5 167.5v508h121v-526q0 -150 -91.5 -229.5t-234.5 -79.5z" />
<glyph unicode="&#xe1b;" horiz-adv-x="880" d="M440 -8q-145 0 -235 80t-90 229v526h121v-508q0 -111 50 -168t154 -57t154.5 57.5t50.5 167.5v906h121v-924q0 -150 -91.5 -229.5t-234.5 -79.5z" />
<glyph unicode="&#xe1c;" horiz-adv-x="919" d="M686 827h119v-534q0 -145 -92 -232q-57 -51 -144 -69l-110 114q-27 -29 -56.5 -57.5t-54.5 -56.5q-88 23 -141 69q-43 41 -67.5 99.5t-24.5 132.5v311q0 102 53 162.5t162 60.5h92v-106h-78q-63 0 -85.5 -29.5t-22.5 -89.5v-293q0 -133 88 -186l92 90q18 18 44.5 18 t45.5 -18l92 -90q88 53 88 186v518z" />
<glyph unicode="&#xe1d;" horiz-adv-x="919" d="M686 1225h119v-932q0 -145 -92 -232q-57 -51 -144 -69l-110 114q-27 -29 -56.5 -57.5t-54.5 -56.5q-88 23 -141 69q-43 41 -67.5 99.5t-24.5 132.5v311q0 102 53 162.5t162 60.5h92v-106h-78q-63 0 -85.5 -29.5t-22.5 -89.5v-293q0 -133 88 -186l92 90q18 18 44.5 18 t45.5 -18l92 -90q88 53 88 186v916z" />
<glyph unicode="&#xe1e;" horiz-adv-x="1105" d="M600 827l227 -626l95 626h120l-139 -827h-108l-242 641l-242 -641h-110l-138 827h123l93 -626l225 626h96z" />
<glyph unicode="&#xe1f;" horiz-adv-x="1105" d="M600 827l227 -626l158 1024h121l-203 -1225h-108l-242 641l-242 -641h-110l-138 827h123l93 -626l227 626h94z" />
<glyph unicode="&#xe20;" horiz-adv-x="942" d="M827 0h-120v500q0 127 -61.5 179t-178.5 52q-66 0 -128.5 -22.5t-115.5 -87.5l62 -93v-331q0 -66 -22.5 -105t-54.5 -59.5t-68 -26.5t-62 -6l-21 106q41 -2 63.5 8.5t32 28t10.5 37t1 37.5v283l-78 110q133 225 383 226q180 0 268 -84t90 -238v-514z" />
<glyph unicode="&#xe21;" horiz-adv-x="880" d="M766 827v-530q0 -137 -82 -222t-215 -85q-74 0 -133.5 32.5t-99.5 88.5v-111h-121v827h121v-493q0 -47 18 -90t49 -76t70 -52.5t78 -19.5q92 0 143 55.5t51 165.5v510h121z" />
<glyph unicode="&#xe22;" horiz-adv-x="894" d="M82 604q0 92 54 157.5t161 65.5h127v-106h-111q-66 0 -89 -29.5t-23 -89.5q0 -53 53 -83t170 -30v-98q-117 0 -170 -39t-53 -108q0 -63 62.5 -106.5t166.5 -43.5q68 0 112 18.5t69.5 51.5t35.5 78t10 98v487h123v-487q0 -164 -78.5 -258t-271.5 -94q-115 0 -183.5 30.5 t-105.5 73.5t-48 88t-11 72q0 59 25.5 107.5t85.5 78.5q-57 27 -82 70t-29 96z" />
<glyph unicode="&#xe23;" horiz-adv-x="718" d="M664 238q0 -49 -19.5 -94.5t-58.5 -79t-97.5 -54t-136.5 -20.5q-55 0 -99 8t-81 23.5t-69.5 39t-67.5 56.5l78 80q27 -27 52 -46.5t52 -32t58.5 -18.5t72.5 -6q109 0 152 42t43 102q0 66 -43 94t-103 41l-67 14q-123 25 -188.5 73t-65.5 144t68.5 164t205.5 68 q86 0 149.5 -26t129.5 -73l-82 -78q-53 35 -93 54.5t-104 19.5q-84 0 -120.5 -37t-36.5 -92q0 -47 37.5 -70.5t113.5 -41.5l80 -17q49 -12 93 -29.5t76 -45t51.5 -67.5t19.5 -95z" />
<glyph unicode="&#xe24;" horiz-adv-x="905" d="M129 502l-78 108q131 225 383 226q180 0 268.5 -84t88.5 -238v-823h-119v811q0 125 -61.5 177t-178.5 52q-61 0 -126.5 -24.5t-117.5 -90.5l60 -92v-325q0 -41 13 -67t63 -26h75v-106h-92q-96 0 -137 52t-41 145v305z" />
<glyph unicode="&#xe25;" horiz-adv-x="841" d="M387 -10q-106 0 -167.5 18.5t-104.5 59.5q-29 31 -46.5 75.5t-17.5 92.5q0 117 80 189.5t225 72.5h250v53q0 90 -50 135t-167 45q-82 0 -134 -23.5t-105 -78.5l-84 69q66 66 136 102t187 36q174 0 256 -71t82 -206v-559h-121v395h-241q-98 0 -146.5 -42t-48.5 -115 q0 -72 52 -108t165 -36v-104z" />
<glyph unicode="&#xe26;" horiz-adv-x="942" d="M827 -307h-120v809q0 125 -61.5 177t-178.5 52q-61 0 -124.5 -22.5t-119.5 -87.5l62 -93v-331q0 -66 -22.5 -105t-54.5 -59.5t-68 -26.5t-62 -6l-21 106q41 -2 63.5 8.5t32 28t10.5 37t1 37.5v285l-78 108q131 225 383 226q180 0 268 -84t90 -238v-821z" />
<glyph unicode="&#xe27;" horiz-adv-x="712" d="M143 180q31 -39 79 -60.5t95 -21.5q102 0 149.5 65.5t47.5 164.5v176q0 92 -45 158.5t-152 66.5q-59 0 -111 -31.5t-81 -91.5l-100 53q43 84 121.5 130.5t170.5 46.5q150 0 233 -91.5t83 -240.5v-178q0 -68 -18.5 -128.5t-56.5 -106.5t-98.5 -72.5t-142.5 -26.5 q-72 0 -141.5 29.5t-116.5 89.5z" />
<glyph unicode="&#xe28;" horiz-adv-x="927" d="M741 721q29 -39 45.5 -87t16.5 -108v-526h-121v510q0 223 -223 223q-109 0 -166 -63.5t-57 -175.5v-11q16 8 39.5 13.5t54.5 5.5h162v-103h-146q-66 0 -88 -28.5t-22 -87.5v-283h-121v526q0 150 94 231t250 81q57 0 106 -10.5t90 -32.5l160 155l84 -80z" />
<glyph unicode="&#xe29;" horiz-adv-x="921" d="M782 397v-96q0 -72 -25.5 -129t-69.5 -97t-105.5 -62.5t-132.5 -22.5q-70 0 -130.5 20.5t-104.5 60.5t-70.5 98t-28.5 132v526h121v-508q0 -111 54 -168t159 -57q104 0 158.5 57.5t54.5 167.5v78h-130q-25 0 -50 7.5t-44.5 26t-33 51t-13.5 83.5h115q0 -70 43 -69h113 v331h120v-331h107v-99h-107z" />
<glyph unicode="&#xe2a;" horiz-adv-x="872" d="M395 731q-82 0 -134 -23.5t-105 -78.5l-84 69q66 66 136.5 102t186.5 36q119 0 197 -37l149 149l84 -80l-143 -139q29 -35 40 -76t11 -94v-559h-121v397h-241q-98 0 -146.5 -43t-48.5 -116q0 -72 52.5 -108t164.5 -36v-104q-106 0 -168.5 18.5t-103.5 59.5 q-31 29 -47.5 74.5t-16.5 93.5q0 117 80 188.5t225 71.5h250v55q0 90 -50 135t-167 45z" />
<glyph unicode="&#xe2b;" horiz-adv-x="897" d="M637 633q74 -39 109.5 -114t35.5 -161v-358h-118v344q0 168 -125 209l-303 -242v-311h-121v827h121v-374l493 391l72 -86z" />
<glyph unicode="&#xe2c;" horiz-adv-x="1116" d="M891 631q10 90 -115 92v104h86q49 0 74 22.5t35 57.5l22 76h125l-33 -109q-16 -51 -43.5 -80.5t-66.5 -48.5q20 -23 29.5 -54.5t5.5 -61.5l-107 -629h-108l-236 637l-6 27l-6 -27l-236 -637h-110l-138 827h123l86 -559l7 -65l14 65l205 559h110l203 -559l16 -63l7 63z " />
<glyph unicode="&#xe2d;" horiz-adv-x="847" d="M401 397h-200q0 -37 2 -76.5t12 -70.5q18 -59 71.5 -106.5t139.5 -47.5q70 0 114 25.5t69.5 70t34.5 101.5t9 121q0 55 -10 112.5t-37.5 102.5t-77 73.5t-127.5 28.5q-66 0 -118 -24.5t-107 -77.5l-92 71q37 33 70.5 59.5t71.5 43t82 26t98 9.5q180 0 274 -106.5 t94 -317.5q0 -199 -92 -311.5t-256 -112.5q-123 0 -206 63.5t-118 173.5q-6 18 -10 51t-5 70t-2 76t-1 72h317v-99z" />
<glyph unicode="&#xe2e;" horiz-adv-x="847" d="M102 227q-6 18 -10 50t-5 69t-2 76t-1 74h317v-99h-200q0 -37 2 -75.5t12 -71.5q18 -59 71.5 -106.5t139.5 -47.5q70 0 114 25.5t69.5 70t34.5 101.5t9 121q0 55 -10 112.5t-37.5 102.5t-77 73.5t-127.5 28.5q-70 0 -120 -23.5t-105 -78.5l-92 73q37 33 70.5 58.5 t71.5 42t82 26t98 9.5q100 0 182 -39l164 159l84 -79l-158 -150q96 -109 96 -315q0 -199 -92 -311.5t-256 -112.5q-123 0 -206 62t-118 175z" />
<glyph unicode="&#xe2f;" horiz-adv-x="864" d="M641 375q-39 -37 -97.5 -54.5t-115.5 -17.5q-152 0 -242 77t-90 214q0 100 53.5 166.5t161.5 66.5h92v-106h-77q-63 0 -87 -35t-24 -92q0 -90 54.5 -138t158.5 -48q213 0 213 215v204h123v-827h-123v375z" />
<glyph unicode="&#xe30;" horiz-adv-x="489" d="M174 303q0 -72 41 -72h193v-98h-209q-25 0 -49.5 7t-44 26.5t-33 52.5t-13.5 84h115zM174 702q0 -72 41 -71h193v-99h-209q-25 0 -49.5 7.5t-44 27t-33 52t-13.5 83.5h115z" />
<glyph unicode="&#xe31;" d="M-375 1163q0 -72 41 -71h373v-99h-389q-25 0 -49.5 7.5t-44 27t-32.5 52t-13 83.5h114z" />
<glyph unicode="&#xe32;" horiz-adv-x="636" d="M2 707q39 61 103.5 95t150.5 34q133 0 199.5 -71t66.5 -200v-565h-119v561q0 78 -32.5 124t-114.5 46q-109 0 -160 -80z" />
<glyph unicode="&#xe33;" horiz-adv-x="636" d="M2 707q39 61 103.5 95t150.5 34q133 0 199.5 -71t66.5 -200v-565h-119v561q0 78 -32.5 124t-114.5 46q-109 0 -160 -80zM-330 1122q0 61 44 105.5t106 44.5q59 0 103 -44t44 -106q0 -59 -44 -103t-103 -44q-61 0 -105.5 44t-44.5 103zM-238 1122q0 -25 16.5 -40t41.5 -15 t41 15.5t16 39.5q0 25 -16.5 41.5t-40.5 16.5q-25 0 -41.5 -16.5t-16.5 -41.5z" />
<glyph unicode="&#xe34;" d="M-762 1092h647v-99h-647v99z" />
<glyph unicode="&#xe35;" d="M-762 1092h531v133h116v-232h-647v99z" />
<glyph unicode="&#xe36;" d="M-762 993v99h395q-8 20 -8 38q0 59 40 99.5t97 40.5q59 0 99.5 -40t40.5 -100q0 -57 -40 -97t-100 -40h-524zM-289 1130q0 -23 15.5 -37t35.5 -14q23 0 39.5 14.5t16.5 36.5q0 23 -16.5 38.5t-39.5 15.5q-20 0 -35.5 -15.5t-15.5 -38.5z" />
<glyph unicode="&#xe37;" d="M-762 1092h375v133h100v-133h72v133h100v-232h-647v99z" />
<glyph unicode="&#xe38;" d="M-231 -281q0 39 -9.5 48.5t-35.5 9.5h-41v104h51q43 0 71.5 -6t46 -23.5t25.5 -48t8 -82.5v-127h-116v125z" />
<glyph unicode="&#xe39;" d="M-455 -248q0 27 -24 27h-41v102h63q66 0 90.5 -26.5t24.5 -92.5v-10q0 -18 11.5 -37.5t45.5 -19.5q35 0 45.5 19.5t10.5 37.5v129h114v-129q0 -72 -48 -115t-122 -43q-78 0 -124 43t-46 115z" />
<glyph unicode="&#xe3a;" d="M-262 -209q0 35 23.5 58.5t58.5 23.5t58.5 -23.5t23.5 -58.5t-23.5 -58.5t-58.5 -23.5t-58.5 23.5t-23.5 58.5z" />
<glyph unicode="&#xe3e;" />
<glyph unicode="&#xe3f;" horiz-adv-x="976" d="M870 287q0 -141 -88 -214t-229 -73v-113h-117v113h-284v1036h284v107h117v-107q133 -4 218 -77.5t85 -198.5q0 -82 -42 -141.5t-107 -86.5q74 -29 118.5 -91t44.5 -154zM272 106h164v367h-164v-367zM750 291q0 84 -52.5 131t-144.5 51v-367q92 4 144.5 53.5t52.5 131.5z M272 582h164v348h-164v-348zM731 758q0 84 -50 125t-128 45v-346q78 6 128 48t50 128z" />
<glyph unicode="&#xe40;" horiz-adv-x="389" d="M115 827h121v-628q0 -41 12 -67t61 -26h76v-106h-92q-96 0 -137 52t-41 145v630z" />
<glyph unicode="&#xe41;" horiz-adv-x="780" d="M115 827h121v-628q0 -41 12 -67t61 -26h76v-106h-92q-96 0 -137 52t-41 145v630zM506 827h121v-628q0 -41 12 -67t61 -26h76v-106h-92q-96 0 -137 52t-41 145v630z" />
<glyph unicode="&#xe42;" horiz-adv-x="454" d="M152 971q0 72 -39 115.5t-117 43.5l20 95h506v-97h-303q31 -37 42 -80.5t11 -78.5v-764q0 -41 10.5 -70t63.5 -29h76v-106h-92q-100 0 -139 56.5t-39 146.5v768z" />
<glyph unicode="&#xe43;" horiz-adv-x="452" d="M152 727q0 18 1 33.5t6 32t16 35t32 40.5q20 23 41.5 47.5t42.5 47.5q31 37 37 55t6 29q0 47 -34 64t-75 17q-33 0 -69.5 -20.5t-51.5 -85.5l-110 18q6 47 29.5 84t56.5 61.5t70.5 37t74.5 12.5q111 0 167.5 -51t56.5 -137q0 -39 -19.5 -74t-58.5 -80q-18 -23 -39 -45.5 t-39 -44.5q-16 -16 -18.5 -33.5t-2.5 -38.5v-526q0 -41 10.5 -70t63.5 -29h76v-106h-92q-100 0 -139 56.5t-39 146.5v524z" />
<glyph unicode="&#xe44;" horiz-adv-x="466" d="M166 969q0 35 11 79t42 80h-270v97h473l20 -95q-78 0 -116.5 -44t-38.5 -115v-764q0 -41 10 -69.5t63 -28.5h76v-109h-90q-100 0 -140 57.5t-40 147.5v764z" />
<glyph unicode="&#xe45;" horiz-adv-x="636" d="M2 707q39 61 103.5 95t150.5 34q133 0 199.5 -71t66.5 -200v-874h-119v870q0 78 -32.5 124t-114.5 46q-109 0 -160 -80z" />
<glyph unicode="&#xe46;" horiz-adv-x="858" d="M246 717q-18 -6 -33.5 -25.5t-15.5 -83.5q0 -18 1 -38.5t8 -37t21.5 -26.5t40.5 -10h25v-95h-39q-39 0 -70.5 10.5t-55.5 34t-36 63.5t-12 99q0 96 39 148.5t141 79.5l158 -127l153 127q72 -20 122 -64.5t50 -126.5v-954h-120v952q0 23 -7.5 42.5t-29.5 31.5l-133 -109 q-14 -10 -34 -9t-36 11z" />
<glyph unicode="&#xe47;" d="M-580 1255q-41 0 -63.5 -30.5t-22.5 -53.5q0 -25 11.5 -47t33.5 -34l121 71q12 8 31.5 8t32.5 -8l125 -74q20 10 28.5 35t-2.5 70h109q18 -82 -26 -140.5t-122 -72.5l-143 88q-35 -23 -71.5 -45.5t-69.5 -44.5q-72 20 -118 66.5t-46 127.5q0 66 48 121.5t134 59.5h461 v-97h-451z" />
<glyph unicode="&#xe48;" d="M-231 1599h116v-282h-116v282z" />
<glyph unicode="&#xe49;" d="M55 1417v-100h-440v94q16 0 29 2q10 2 20 2t14 2q16 4 32 15.5t16 42.5q0 45 -78 38v105q86 0 136 -31t50 -102q0 -37 -18 -68h239z" />
<glyph unicode="&#xe4a;" d="M72 1409v-92h-273v141q0 33 -10 48.5t-20 19.5l-62 -64q-16 -14 -38.5 -15t-39.5 15l-65 64q-16 -6 -27.5 -20.5t-11.5 -43.5q0 -23 22.5 -41t61.5 -18v-92h-25q-68 0 -112.5 44t-44.5 103q0 68 29.5 102.5t60.5 51.5q23 10 46 14t46 -18l57 -56l47 47q23 27 49.5 25 t40.5 -10q35 -16 66 -55t31 -101v-49h172z" />
<glyph unicode="&#xe4b;" d="M-346 1423v101h121v110h108v-110h121v-101h-121v-106h-108v106h-121z" />
<glyph unicode="&#xe4c;" d="M-231 1217q0 55 13 87.5t32.5 51t44 24.5t49.5 6h153v-98h-143q-25 0 -33 -18.5t-8 -52.5h-108z" />
<glyph unicode="&#xe4d;" d="M-330 1122q0 61 44 105.5t106 44.5q59 0 103 -44t44 -106q0 -59 -44 -103t-103 -44q-61 0 -105.5 44t-44.5 103zM-238 1122q0 -25 16.5 -40t41.5 -15t41 15.5t16 39.5q0 25 -16.5 41.5t-40.5 16.5q-25 0 -41.5 -16.5t-16.5 -41.5z" />
<glyph unicode="&#xe4e;" d="M-104 1075q-10 0 -12.5 -21.5t-2.5 -52.5h-110q0 88 24.5 122t61.5 38q4 27 18 42.5t32.5 22.5t39 9t39.5 2h86v-94h-76q-27 0 -32 -12.5t-5 -55.5h-63z" />
<glyph unicode="&#xe4f;" horiz-adv-x="1054" d="M96 410q0 90 34 168.5t92.5 137t136 92.5t165.5 34q90 0 169 -34t137.5 -92.5t92 -137t33.5 -168.5q0 -88 -33.5 -166t-92 -136.5t-137.5 -92t-169 -33.5q-88 0 -165.5 33.5t-136 92t-92.5 136.5t-34 166zM207 410q0 -66 25.5 -123.5t68.5 -100.5t100.5 -68.5 t122.5 -25.5q68 0 126.5 25.5t101.5 68.5t68.5 100.5t25.5 123.5q0 68 -25.5 126t-68.5 101t-101.5 68.5t-126.5 25.5q-66 0 -123 -25.5t-100 -68.5t-68.5 -101t-25.5 -126zM289 410q0 49 18.5 92t51 75.5t74.5 51t91 18.5t92 -18.5t76 -51t51.5 -75.5t18.5 -92t-18.5 -91.5 t-51.5 -75t-76 -51t-92 -18.5t-91 18.5t-74.5 51t-51 75t-18.5 91.5zM399 410q0 -51 37 -88t88 -37q53 0 90 36.5t37 88.5q0 53 -36.5 90t-90.5 37q-51 0 -88 -37t-37 -90z" />
<glyph unicode="&#xe50;" horiz-adv-x="954" d="M477 88q127 2 204 81t77 196q0 55 -20.5 104t-57.5 86t-88 58.5t-115 21.5q-63 0 -114.5 -21.5t-88 -58.5t-57 -86t-20.5 -104q0 -117 76.5 -196t203.5 -81zM477 739q96 0 171 -29.5t126 -79.5t78 -119t27 -146q0 -78 -27 -146.5t-78 -120t-126 -81t-171 -29.5t-171 29.5 t-126 81t-77.5 120t-26.5 146.5t26.5 146.5t77.5 118.5t126 79.5t171 29.5z" />
<glyph unicode="&#xe51;" horiz-adv-x="954" d="M68 358q0 84 30.5 154t86 119t130 76.5t162.5 27.5q92 0 168 -29.5t128 -83t81 -130t29 -168.5q0 -86 -23.5 -157t-66.5 -127t-102.5 -100t-131.5 -79l-59 84q119 63 191.5 152t72.5 229q0 70 -22.5 127t-61.5 97t-91 62.5t-112 22.5q-55 0 -107.5 -20.5t-92 -57.5 t-63.5 -87t-24 -112q0 -231 228 -235l4 -105q-96 0 -164 26t-110 72t-61 108t-19 134z" />
<glyph unicode="&#xe52;" horiz-adv-x="1034" d="M201 946v-627q0 -61 30.5 -104t79.5 -69.5t109.5 -40t120.5 -13.5q59 0 114.5 13.5t98.5 40t68.5 69.5t25.5 104v107q0 66 -23.5 117t-70.5 69q-25 -23 -51.5 -46t-51.5 -44q-18 -16 -44.5 -16t-43.5 18l-78 88q-31 -12 -49 -42.5t-28 -71.5l-115 37q23 86 81 136t136 72 l96 -114l121 114q125 -33 182.5 -115.5t57.5 -187.5v-121q0 -86 -32 -148t-88 -102t-135 -58.5t-171 -18.5t-176 18.5t-146.5 57t-100.5 101t-38 148.5v629h121z" />
<glyph unicode="&#xe53;" horiz-adv-x="1017" d="M549 485q-41 -33 -82 0l-156 123q-47 -31 -85 -97.5t-38 -145.5q0 -113 52.5 -192t162.5 -81v-100q-92 2 -156.5 36.5t-104.5 87t-57 118t-17 131.5q0 133 71.5 231t175.5 147l193 -149q47 37 96 75t96 74q51 -25 97.5 -61.5t80 -84.5t53 -106.5t19.5 -123.5 q0 -123 -45 -218.5t-102 -160.5l-101 53q20 27 43 60.5t41.5 73.5t30.5 87t12 103q0 80 -33.5 145t-88.5 98z" />
<glyph unicode="&#xe54;" horiz-adv-x="1064" d="M573 100q-27 29 -44 71t-17 89q0 119 67.5 172t196.5 53h39v-100h-31q-70 0 -111.5 -25.5t-41.5 -97.5q0 -80 49 -120t141 -42h99v-100h-480q-92 0 -162.5 27.5t-116.5 77t-69.5 116t-23.5 144.5t23.5 144t69.5 115.5t116.5 77t162.5 27.5h371l158 154l80 -78l-179 -176 h-430q-119 -2 -185.5 -76t-66.5 -188q0 -115 67 -190t185 -75h133z" />
<glyph unicode="&#xe55;" horiz-adv-x="1064" d="M811 731l162 154l80 -78l-187 -176h-426q-119 -2 -185.5 -77t-66.5 -187q0 -115 67 -191t185 -76h129q-27 29 -44 72t-17 90q0 119 67.5 171t196.5 52h39v-100h-31q-70 0 -111.5 -24.5t-41.5 -96.5q0 -82 49 -122t141 -42h103v-100h-480q-92 0 -162.5 27.5t-116.5 77 t-69.5 116t-23.5 146.5q0 78 23.5 144.5t69.5 115.5t116.5 76.5t162.5 27.5h47q-8 16 -8 43q0 59 44 101.5t106 42.5q59 0 103 -42t44 -102q0 -12 -2 -22.5t-6 -20.5h43zM571 774q0 -25 16.5 -39t41.5 -14t41 14.5t16 38.5q0 23 -16.5 39t-40.5 16q-25 0 -41.5 -16 t-16.5 -39z" />
<glyph unicode="&#xe56;" horiz-adv-x="1034" d="M176 252q-6 49 7.5 85t34 60.5t45 40t40.5 23.5l59 -92q-12 -6 -24 -14.5t-21.5 -20.5t-14.5 -30.5t-3 -45.5q2 -39 26.5 -67.5t61.5 -48t81 -30t85 -10.5q141 0 216 74t75 189t-75 192.5t-216 79.5q-94 0 -154.5 -25.5t-113.5 -62.5l-262 258l83 78l197 -199 q43 18 109.5 36.5t140.5 18.5q104 0 181 -29.5t128 -80.5t77 -120t26 -146q0 -80 -26 -147.5t-77 -117t-129 -78t-180 -28.5q-170 0 -268.5 73.5t-108.5 184.5z" />
<glyph unicode="&#xe57;" horiz-adv-x="1056" d="M977 350q0 -68 -17.5 -124t-43 -102t-54 -79t-53.5 -53l-94 55q20 20 44.5 50t46 67t36 83t14.5 101q0 41 -14.5 80t-37 73t-49 62.5t-53.5 46.5l-145 -125q-43 -37 -82 0l-145 125q-25 -20 -50.5 -44.5t-45 -56.5t-33 -72t-13.5 -89q0 -123 63.5 -187.5t156.5 -64.5 v-102q-90 2 -155 34.5t-106 82t-60 112t-19 125.5q0 76 22.5 137.5t60 110.5t86 86t99.5 66l180 -152l178 149q35 -14 84 -45.5t80 -70.5v317h119v-596z" />
<glyph unicode="&#xe58;" horiz-adv-x="1030" d="M913 262q0 -86 -51 -151.5t-162 -116.5l-186 149l-186 -149q-53 23 -100.5 60.5t-82 85.5t-56 106.5t-21.5 124.5q0 68 20.5 132t63.5 114.5t109.5 82t158.5 31.5h371l149 154l84 -78l-174 -176h-430q-111 -2 -171.5 -75t-60.5 -185q0 -74 42 -136.5t89 -103.5l154 123 q41 35 82 0l156 -129q41 20 64.5 54t23.5 85q0 41 -24.5 68.5t-57.5 44.5l31 100q78 -25 121.5 -77t43.5 -138z" />
<glyph unicode="&#xe59;" horiz-adv-x="1144" d="M471 -12q-96 0 -172 29.5t-127 81t-77.5 120t-26.5 146.5t25.5 146.5t75.5 118.5t121.5 79.5t164.5 29.5q92 0 156.5 -34.5t117.5 -106.5q16 61 62.5 97t138.5 36h176v-96h-162q-47 0 -71.5 -15.5t-36 -40t-13.5 -55t-2 -63.5l230 -422l-107 -45l-254 457 q-106 184 -235 184q-59 0 -108.5 -20.5t-84.5 -57.5t-54.5 -86t-19.5 -106t20.5 -106.5t57.5 -86.5t89.5 -59.5t115.5 -22.5v-102z" />
<glyph unicode="&#xe5a;" horiz-adv-x="1128" d="M891 827h123v-827h-123v827zM635 375q-39 -37 -97.5 -54.5t-115.5 -17.5q-152 0 -242 77t-90 214q0 100 53.5 166.5t161.5 66.5h92v-106h-78q-63 0 -86.5 -35t-23.5 -92q0 -90 54 -138t159 -48q213 0 213 215v204h123v-827h-123v375z" />
<glyph unicode="&#xe5b;" horiz-adv-x="1810" d="M1726 463v-98h-356l-53 71q-16 -33 -40 -76t-48.5 -87t-47 -81.5t-38.5 -62.5q-16 31 -39 71t-47.5 82t-50 81.5t-45.5 68.5q-16 -90 -55.5 -162.5t-95.5 -124t-128 -79t-154 -27.5q-106 0 -186 29.5t-134 81t-81 121t-27 151.5q0 88 29 154.5t74 111.5t102 66.5 t113 21.5q78 0 122 -27.5t72 -52.5l-77 -88q-61 55 -121 56q-37 0 -73 -15.5t-63.5 -46.5t-44 -76t-16.5 -104q0 -74 25.5 -125t68.5 -85t99.5 -49.5t115.5 -15.5q66 0 124.5 31t103.5 81t70.5 113.5t25.5 131.5q0 27 -3 53.5t-13 54.5l79 60q27 -29 60 -69t64.5 -85t61 -89 t52.5 -81q14 27 31.5 60.5t34 65.5t30 59.5t19.5 44.5l55 18l98 -133h307z" />
<glyph unicode="&#x2000;" horiz-adv-x="818" />
<glyph unicode="&#x2001;" horiz-adv-x="1636" />
<glyph unicode="&#x2002;" horiz-adv-x="818" />
<glyph unicode="&#x2003;" horiz-adv-x="1636" />
<glyph unicode="&#x2004;" horiz-adv-x="545" />
<glyph unicode="&#x2005;" horiz-adv-x="409" />
<glyph unicode="&#x2006;" horiz-adv-x="272" />
<glyph unicode="&#x2007;" horiz-adv-x="272" />
<glyph unicode="&#x2008;" horiz-adv-x="204" />
<glyph unicode="&#x2009;" horiz-adv-x="327" />
<glyph unicode="&#x200a;" horiz-adv-x="90" />
<glyph unicode="&#x200b;" />
<glyph unicode="&#x2010;" horiz-adv-x="688" d="M127 371v106h434v-106h-434z" />
<glyph unicode="&#x2011;" horiz-adv-x="688" d="M127 371v106h434v-106h-434z" />
<glyph unicode="&#x2012;" horiz-adv-x="688" d="M127 371v106h434v-106h-434z" />
<glyph unicode="&#x2013;" horiz-adv-x="829" d="M72 373v102h684v-102h-684z" />
<glyph unicode="&#x2014;" horiz-adv-x="1404" d="M119 373v102h1169v-102h-1169z" />
<glyph unicode="&#x2018;" horiz-adv-x="419" d="M279 1198v-272h-140v143z" />
<glyph unicode="&#x2019;" horiz-adv-x="419" d="M139 831v273h140v-143z" />
<glyph unicode="&#x201c;" horiz-adv-x="671" d="M279 1198v-272h-140v143zM530 1198v-272h-139v143z" />
<glyph unicode="&#x201d;" horiz-adv-x="671" d="M391 831v273h139v-143zM139 831v273h140v-143z" />
<glyph unicode="&#x2022;" horiz-adv-x="919" d="M258 418q0 41 16.5 77.5t44 64.5t64.5 44.5t78 16.5t77.5 -16.5t64.5 -44.5t44.5 -64.5t16.5 -77.5t-16.5 -78t-44.5 -64.5t-64.5 -44t-77.5 -16.5t-78 16.5t-64.5 44t-44 64.5t-16.5 78z" />
<glyph unicode="&#x202f;" horiz-adv-x="327" />
<glyph unicode="&#x205f;" horiz-adv-x="409" />
<glyph unicode="&#x20ac;" horiz-adv-x="974" d="M891 303q-25 -147 -122 -230t-239 -83q-76 0 -143.5 28.5t-120.5 81.5t-73.5 110.5t-24.5 143.5h-109v97h107v67v66h-107v94h109q4 86 23.5 145.5t74.5 114.5q53 53 121 81t143 28q141 0 236.5 -84t124.5 -232h-121q-20 96 -81.5 152.5t-158.5 56.5q-51 0 -97 -18.5 t-79 -51.5q-35 -35 -49 -76.5t-18 -115.5h262v-94h-264v-66v-67h264v-97h-262q4 -72 18 -112.5t49 -73.5q33 -35 79 -53.5t97 -18.5q96 0 160 57.5t84 151.5h113z" />
<glyph unicode="&#x2122;" horiz-adv-x="1271" d="M1087 395v414q-35 -63 -71.5 -129t-69.5 -127h-88l-141 258v-416h-101v641h93l192 -364l193 364h94v-641h-101zM344 946v-551h-100v551h-187v90h471v-90h-184z" />
<glyph unicode="&#x25cc;" horiz-adv-x="1148" d="M444 307l-82 -26l27 81q22 -32 55 -55zM535 709l40 77l37 -75q-18 2 -34 2q-23 0 -43 -4zM608 268l-33 -71l-36 71q18 -4 39 -4q16 0 30 4zM797 526l71 -39l-71 -30q4 14 4 30q0 19 -4 39zM356 453l-77 39l77 38q-4 -23 -4 -43q0 -18 4 -34zM395 623l-22 77l78 -26 q-33 -20 -56 -51zM754 352l20 -71l-69 22q29 20 49 49zM702 674l86 26l-30 -79q-23 30 -56 53z" />
<glyph unicode="&#x25fc;" horiz-adv-x="778" d="M0 778h778v-778h-778v778z" />
<glyph unicode="&#xf700;" horiz-adv-x="768" d="M657 956l84 -77l-166 -158q31 -37 48.5 -86t17.5 -111v-524h-121v281q0 59 -21.5 88.5t-86.5 29.5h-158v101h174q31 0 53.5 -5.5t38.5 -13.5v23q0 227 -215 227q-68 0 -125 -33.5t-82 -101.5l-110 53q41 92 123 139.5t194 47.5q57 0 100.5 -9.5t83.5 -31.5z" />
<glyph unicode="&#xf701;" d="M-901 1092h602v-99h-602v99z" />
<glyph unicode="&#xf702;" d="M-901 1092h485v133h117v-232h-602v99z" />
<glyph unicode="&#xf703;" d="M-901 993v99h354q-8 20 -8 38q0 59 40 99.5t97 40.5q59 0 99 -40t40 -100q0 -57 -39.5 -97t-99.5 -40h-483zM-469 1130q0 -23 15.5 -37t35.5 -14q23 0 39.5 14.5t16.5 36.5q0 23 -16.5 38.5t-39.5 15.5q-20 0 -35.5 -15.5t-15.5 -38.5z" />
<glyph unicode="&#xf704;" d="M-901 1092h330v133h100v-133h72v133h100v-232h-602v99z" />
<glyph unicode="&#xf705;" d="M-496 1282h121v-287h-121v287z" />
<glyph unicode="&#xf706;" d="M-324 1098v-101h-434v95q16 0 29 2q10 2 20.5 2t14.5 2q16 4 31.5 15t15.5 42q0 45 -78 39v104q86 0 136 -30.5t50 -102.5q0 -37 -18 -67h233z" />
<glyph unicode="&#xf707;" d="M-236 1090v-93h-192v142q0 33 -10.5 48t-20.5 19l-61 -63q-14 -16 -38 -16.5t-40 16.5l-66 63q-16 -6 -27 -20.5t-11 -42.5q0 -25 22.5 -44.5t61.5 -19.5v-88h-25q-68 0 -113 44t-45 104q0 68 30 101.5t60 51.5q23 10 46.5 14.5t46.5 -18.5l57 -55l47 47q23 27 49.5 25 t40.5 -11q35 -16 65.5 -55t30.5 -100v-49h92z" />
<glyph unicode="&#xf708;" d="M-674 1104v100h121v111h109v-111h120v-100h-120v-107h-109v107h-121z" />
<glyph unicode="&#xf709;" d="M-606 997q0 55 13 88t32.5 51.5t44 24.5t49.5 6h143v-98h-133q-25 0 -33 -18.5t-8 -53.5h-108z" />
<glyph unicode="&#xf70a;" d="M-236 1282h121v-287h-121v287z" />
<glyph unicode="&#xf70b;" d="M-45 1098v-101h-473v95q16 0 29 2q10 2 20 2t14 2q16 4 31.5 15t15.5 42q0 45 -77 39v104q86 0 136 -30.5t50 -102.5q0 -37 -18 -67h272z" />
<glyph unicode="&#xf70c;" d="M-39 1090v-93h-258v142q0 33 -10 48t-21 19l-61 -63q-14 -16 -38 -16.5t-40 16.5l-65 63q-16 -6 -27.5 -20.5t-11.5 -42.5q0 -25 22.5 -44.5t61.5 -19.5v-88h-25q-68 0 -113 44t-45 104q0 68 30 101.5t60 51.5q23 10 46.5 14.5t46.5 -18.5l57 -55l47 47q23 27 49.5 25 t40.5 -11q35 -16 65.5 -55t30.5 -100v-49h158z" />
<glyph unicode="&#xf70d;" d="M-348 1104v100h121v111h108v-111h121v-100h-121v-107h-108v107h-121z" />
<glyph unicode="&#xf70e;" d="M-354 997q0 55 13 88t32.5 51.5t44 24.5t49.5 6h186v-98h-176q-25 0 -33 -18.5t-8 -53.5h-108z" />
<glyph unicode="&#xf70f;" horiz-adv-x="1380" d="M129 500l-78 110q133 225 383 226q180 0 268.5 -84t88.5 -238v-195q0 -109 45 -167t133 -58t133 58.5t45 166.5v508h119v-526q0 -63 -16.5 -119.5t-51.5 -99.5t-90 -67.5t-135 -24.5q-152 0 -226.5 82t-74.5 229v199q0 127 -61.5 178t-178.5 51q-61 0 -126.5 -24.5 t-117.5 -88.5l60 -94v-323q0 -41 13 -67t63 -26h75v-106h-92q-96 0 -137 52t-41 145v303z" />
<glyph unicode="&#xf710;" d="M-485 1167q0 -72 41 -71h481v-99h-498q-25 0 -49.5 7.5t-43.5 27t-32.5 52t-13.5 83.5h115z" />
<glyph unicode="&#xf711;" d="M-614 1094q0 61 44 105t105 44q59 0 103.5 -44t44.5 -105q0 -59 -44.5 -103.5t-103.5 -44.5q-61 0 -105 44.5t-44 103.5zM-522 1094q0 -25 16.5 -40.5t40.5 -15.5q25 0 41 15.5t16 40.5t-16 41t-41 16t-41 -16t-16 -41z" />
<glyph unicode="&#xf712;" d="M-659 1241q-41 0 -63.5 -27.5t-22.5 -56.5q0 -51 40 -82l80 72q12 12 32 12t32 -10l84 -74q20 10 27.5 34t-3.5 69h109q18 -84 -26 -142.5t-122 -72.5l-100 88q-23 -23 -48.5 -44.5t-47.5 -43.5q-72 23 -119 67.5t-47 126.5q0 66 48 121t134 59h383v-96h-370z" />
<glyph unicode="&#xf713;" d="M-416 1602h117v-283h-117v283z" />
<glyph unicode="&#xf714;" d="M-113 1419v-100h-440v94q16 0 29 2q10 2 20 2t15 2q16 4 31.5 15.5t15.5 42.5q0 45 -78 39v104q86 0 136 -30.5t50 -102.5q0 -37 -18 -68h239z" />
<glyph unicode="&#xf715;" d="M-113 1411v-92h-272v141q0 33 -10.5 48.5t-20.5 19.5l-61 -64q-16 -14 -39 -15t-39 15l-66 64q-16 -6 -27 -20.5t-11 -43.5q0 -23 22.5 -41t61.5 -18v-92h-25q-68 0 -113 44t-45 103q0 68 30 102.5t60 51.5q23 10 46.5 14t46.5 -18l57 -56l47 48q23 27 49.5 24.5 t40.5 -10.5q35 -16 65.5 -55t30.5 -101v-49h172z" />
<glyph unicode="&#xf716;" d="M-528 1425v101h120v110h109v-110h121v-101h-121v-106h-109v106h-120z" />
<glyph unicode="&#xf717;" d="M-412 1217q0 55 13.5 87.5t33 51t44 24.5t49.5 6h153v-98h-143q-25 0 -33 -18.5t-8 -52.5h-109z" />
<glyph unicode="&#xf718;" d="M-231 -500q0 39 -9.5 48.5t-35.5 9.5h-41v104h51q43 0 71.5 -6t46 -23.5t25.5 -48t8 -82.5v-127h-116v125z" />
<glyph unicode="&#xf719;" d="M-455 -469q0 27 -24 27h-41v102h63q66 0 90.5 -26.5t24.5 -92.5v-10q0 -18 11.5 -37.5t45.5 -19.5q35 0 45.5 19.5t10.5 37.5v129h114v-129q0 -72 -48 -115t-122 -43q-78 0 -124 43t-46 115z" />
<glyph unicode="&#xf71a;" d="M-279 -426q0 35 24 58.5t58 23.5q35 0 58.5 -23.5t23.5 -58.5t-23.5 -58.5t-58.5 -23.5t-58.5 23.5t-23.5 58.5z" />
<glyph unicode="&#xf71d;" horiz-adv-x="1116" d="M891 631q10 90 -115 92v104h86q49 0 74 22.5t35 57.5l22 76h125l-33 -109q-16 -51 -43.5 -80.5t-66.5 -48.5q20 -23 29.5 -54.5t5.5 -61.5l-107 -629h-108l-236 637l-6 27l-6 -27l-236 -637h-110l-138 827h123l86 -559l7 -65l14 65l205 559h110l203 -559l16 -63l7 63z " />
<glyph unicode="&#xf881;" horiz-adv-x="1525" d="M891 707q39 61 103.5 95t150.5 34q133 0 199.5 -71t66.5 -200v-874h-119v870q0 78 -32.5 124t-114.5 46q-109 0 -160 -80zM129 502l-78 108q131 225 383 226q180 0 268.5 -84t88.5 -238v-823h-119v811q0 125 -61.5 177t-178.5 52q-61 0 -126.5 -24.5t-117.5 -90.5l60 -92 v-325q0 -41 13 -67t63 -26h75v-106h-92q-96 0 -137 52t-41 145v305z" />
<glyph unicode="&#xf882;" horiz-adv-x="1562" d="M827 -307h-120v809q0 125 -61.5 177t-178.5 52q-61 0 -124.5 -22.5t-119.5 -87.5l62 -93v-331q0 -66 -22.5 -105t-54.5 -59.5t-68 -26.5t-62 -6l-21 106q41 -2 63.5 8.5t32 28t10.5 37t1 37.5v285l-78 108q131 225 383 226q180 0 268 -84t90 -238v-821zM928 707 q39 61 103.5 95t150.5 34q133 0 199.5 -71t66.5 -200v-874h-119v870q0 78 -32.5 124t-114.5 46q-109 0 -160 -80z" />
<glyph d="M-489 1075q-10 0 -12.5 -21.5t-2.5 -52.5h-110q0 88 24.5 122t61.5 38q4 27 18 42.5t32.5 22.5t39 9t39.5 2h86v-94h-76q-27 0 -32 -12.5t-5 -55.5h-63z" />
<glyph horiz-adv-x="636" d="M2 707q39 61 103.5 95t150.5 34q133 0 199.5 -71t66.5 -200v-565h-119v561q0 78 -32.5 124t-114.5 46q-109 0 -160 -80zM-608 1094q0 61 44 105t105 44q59 0 103.5 -44t44.5 -105q0 -59 -44 -103.5t-104 -44.5q-61 0 -105 44.5t-44 103.5zM-516 1094q0 -25 16.5 -40.5 t40.5 -15.5q25 0 41.5 15.5t16.5 40.5t-16.5 41t-41.5 16t-41 -16t-16 -41z" />
<glyph horiz-adv-x="636" d="M2 707q39 61 103.5 95t150.5 34q133 0 199.5 -71t66.5 -200v-565h-119v561q0 78 -32.5 124t-114.5 46q-109 0 -160 -80zM-608 1094q0 61 44 105t105 44q59 0 103.5 -44t44.5 -105q0 -59 -44 -103.5t-104 -44.5q-61 0 -105 44.5t-44 103.5zM-516 1094q0 -25 16.5 -40.5 t40.5 -15.5q25 0 41.5 15.5t16.5 40.5t-16.5 41t-41.5 16t-41 -16t-16 -41z" />
<glyph d="M-700 1092h585v-99h-585v99z" />
<glyph d="M-700 1092h469v133h116v-232h-585v99z" />
<glyph d="M-700 993v99h333q-8 20 -8 38q0 59 40 99.5t97 40.5q59 0 99.5 -40t40.5 -100q0 -57 -40 -97t-100 -40h-462zM-289 1130q0 -23 15.5 -37t35.5 -14q23 0 39.5 14.5t16.5 36.5q0 23 -16.5 38.5t-39.5 15.5q-20 0 -35.5 -15.5t-15.5 -38.5z" />
<glyph d="M-700 1092h313v133h100v-133h72v133h100v-232h-585v99z" />
<glyph d="M-1020 1092h750v-99h-750v99z" />
<glyph d="M-1020 1092h633v133h117v-232h-750v99z" />
<glyph d="M-1020 993v99h506q-4 8 -7 19t-3 19q0 59 40 99.5t97 40.5q59 0 99 -40t40 -100q0 -57 -40 -97t-99 -40h-633zM-438 1130q0 -23 15 -37t36 -14q23 0 39 14.5t16 36.5q0 23 -16.5 38.5t-38.5 15.5q-20 0 -35.5 -15.5t-15.5 -38.5z" />
<glyph d="M-1020 1092h477v133h101v-133h71v133h101v-232h-750v99z" />
<glyph d="M-387 1599h117v-282h-117v282z" />
<glyph d="M-100 1417v-100h-441v94q16 0 29 2q10 2 20.5 2t14.5 2q16 4 31.5 15.5t15.5 42.5q0 45 -78 38v105q86 0 136 -31t50 -102q0 -37 -18 -68h240z" />
<glyph d="M-82 1409v-92h-272v141q0 33 -10.5 48.5t-20.5 19.5l-61 -64q-16 -14 -39 -15t-39 15l-66 64q-16 -6 -27.5 -20.5t-11.5 -43.5q0 -23 22.5 -41t61.5 -18v-92h-24q-68 0 -113 44t-45 103q0 68 29.5 102.5t60.5 51.5q23 10 46.5 14t45.5 -18l58 -56l47 47q23 27 49 25 t41 -10q35 -16 65.5 -55t30.5 -101v-49h172z" />
<glyph d="M-500 1423v101h121v110h109v-110h120v-101h-120v-106h-109v106h-121z" />
<glyph d="M-1016 1092h901v-99h-901v99z" />
<glyph d="M-1016 1092h785v133h116v-232h-901v99z" />
<glyph d="M-1016 993v99h649q-8 20 -8 38q0 59 40 99.5t97 40.5q59 0 99.5 -40t40.5 -100q0 -57 -40 -97t-100 -40h-778zM-289 1130q0 -23 15.5 -37t35.5 -14q23 0 39.5 14.5t16.5 36.5q0 23 -16.5 38.5t-39.5 15.5q-20 0 -35.5 -15.5t-15.5 -38.5z" />
<glyph d="M-1016 1092h629v133h100v-133h72v133h100v-232h-901v99z" />
<glyph d="M-231 1599h116v-282h-116v282z" />
<glyph d="M55 1417v-100h-440v94q16 0 29 2q10 2 20 2t14 2q16 4 32 15.5t16 42.5q0 45 -78 38v105q86 0 136 -31t50 -102q0 -37 -18 -68h239z" />
<glyph d="M72 1409v-92h-273v141q0 33 -10 48.5t-20 19.5l-62 -64q-16 -14 -38.5 -15t-39.5 15l-65 64q-16 -6 -27.5 -20.5t-11.5 -43.5q0 -23 22.5 -41t61.5 -18v-92h-25q-68 0 -112.5 44t-44.5 103q0 68 29.5 102.5t60.5 51.5q23 10 46 14t46 -18l57 -56l47 47q23 27 49.5 25 t40.5 -10q35 -16 66 -55t31 -101v-49h172z" />
<glyph d="M-346 1423v101h121v110h108v-110h121v-101h-121v-106h-108v106h-121z" />
<glyph d="M-807 1092h668v-99h-668v99z" />
<glyph d="M-807 1092h551v133h117v-232h-668v99z" />
<glyph d="M-408 956q0 55 13.5 88t33 51.5t44 24.5t49.5 6h186v-98h-176q-25 0 -33 -18.5t-8 -53.5h-109z" />
<glyph horiz-adv-x="761" d="M657 264q0 -127 -78.5 -202.5t-199.5 -75.5q-119 0 -198 75.5t-79 202.5v303q0 127 79 203t198 76q121 0 199.5 -76t78.5 -203v-303zM545 561q0 78 -43 131t-123 53q-78 0 -121 -53t-43 -131v-291q0 -78 43 -131t121 -53q80 0 123 53.5t43 130.5v291z" />
<glyph horiz-adv-x="679" d="M330 0v702l-201 -174v131l203 168h114v-827h-116z" />
<glyph horiz-adv-x="761" d="M104 0v96l338 322q35 35 59.5 81t24.5 91q0 63 -42 108t-107 45q-63 0 -107.5 -46t-48.5 -117h-115q2 53 24 101t57.5 84t83.5 56.5t106 20.5q59 0 107 -19.5t83 -53.5t54.5 -80t19.5 -97q0 -72 -29.5 -129t-85.5 -111l-262 -248h402v-104h-562z" />
<glyph horiz-adv-x="761" d="M686 74q0 -72 -25.5 -126t-68.5 -91t-101.5 -56.5t-125.5 -19.5q-63 0 -120 17.5t-100 52t-69.5 89t-28.5 126.5h117q6 -96 65.5 -139.5t135.5 -43.5q88 0 146 50.5t58 142.5q0 96 -49 147t-158 51h-26v101h26q98 0 142.5 48t44.5 136q0 90 -53.5 136t-130.5 46 q-84 0 -132.5 -45t-56.5 -125h-117q4 63 29 113.5t66 84.5t95 52.5t116 18.5q135 0 218 -76t83 -205q0 -160 -136 -229q156 -59 156 -256z" />
<glyph horiz-adv-x="761" d="M584 0v-213h-111v213h-424v100l371 748h121l-369 -744h301v287h111v-287h127v-104h-127z" />
<glyph horiz-adv-x="761" d="M690 137q0 -78 -15.5 -147.5t-74.5 -126.5q-39 -39 -92 -60.5t-125 -21.5q-70 0 -125 21.5t-92 56.5q-35 35 -53.5 82t-22.5 104h115q10 -78 53 -120t125 -42q41 0 76 12.5t57 34.5q41 37 48 94.5t7 112.5q0 45 -6 90t-24.5 80t-53 56.5t-92.5 21.5q-70 0 -114.5 -27.5 t-61.5 -72.5h-102v544h549v-98h-447v-313q35 29 82 47t107 18q63 0 109 -18.5t79 -48.5q61 -59 77.5 -132t16.5 -147z" />
<glyph horiz-adv-x="761" d="M707 330q0 -72 -22.5 -134.5t-64.5 -107.5t-102.5 -70.5t-136.5 -25.5q-147 0 -237.5 90t-90.5 237q0 61 20.5 121t53.5 131l244 465h127l-213 -411q59 27 118 26q66 0 121.5 -24.5t96.5 -67.5t63.5 -101t22.5 -128zM594 326q0 45 -14.5 86t-42 71.5t-67.5 48t-91 17.5 q-92 0 -150.5 -60.5t-58.5 -162.5q0 -104 58.5 -167t150.5 -63q94 0 154.5 63t60.5 167z" />
<glyph horiz-adv-x="761" d="M328 -207h-125l372 938h-364v-160h-115v258h602v-96z" />
<glyph horiz-adv-x="761" d="M700 285q0 -66 -24.5 -119t-67.5 -93t-101 -61.5t-126 -21.5t-126 21.5t-102 61.5t-69 93t-25 119q0 92 44 154.5t112 99.5q-59 35 -96 91t-37 138q0 61 22.5 111.5t62.5 87.5t94 57t120 20q63 0 118.5 -20t96.5 -57t63.5 -87.5t22.5 -111.5q0 -82 -37 -138.5t-98 -90.5 q66 -37 109.5 -99.5t43.5 -154.5zM563 766q0 78 -49 130t-133 52q-80 0 -131 -52t-51 -130q0 -82 51 -131t131 -49q84 0 133 49t49 131zM586 287q0 86 -58.5 142t-146.5 56t-146.5 -56t-58.5 -142q0 -84 58.5 -139.5t146.5 -55.5t146.5 55.5t58.5 139.5z" />
<glyph horiz-adv-x="761" d="M53 502q0 72 22.5 133t64.5 106t102.5 71t134.5 26t134 -23.5t104 -65.5t68 -102.5t24 -134.5q0 -63 -20.5 -121.5t-53.5 -130.5l-244 -465h-127l211 410q-27 -10 -55.5 -17.5t-61.5 -7.5q-66 0 -121 24.5t-96 67.5t-63.5 101.5t-22.5 128.5zM166 506q0 -45 14.5 -86 t42 -72t66.5 -48t90 -17q94 0 152.5 60t58.5 163q0 104 -58.5 166.5t-152.5 62.5t-153.5 -62.5t-59.5 -166.5z" />
<glyph d="M-477 1255q-41 0 -63.5 -27.5t-22.5 -56.5q0 -51 41 -81l80 71q12 12 31.5 12.5t31.5 -10.5l84 -73q20 10 27.5 33.5t-2.5 68.5h108q18 -84 -25.5 -142.5t-121.5 -72.5l-101 88q-23 -23 -48 -44.5t-48 -43.5q-72 23 -119 68t-47 126q0 33 12.5 65t36 57.5t57.5 42 t77 16.5h383v-97h-371z" />
<glyph d="M-485 1163q0 -72 41 -71h563v-99h-580q-25 0 -49.5 7.5t-43.5 27t-32.5 52t-13.5 83.5h115z" />
<glyph d="M-416 1499h117v-282h-117v282z" />
<glyph d="M-301 1317v-100h-430v94q16 0 29 2q10 2 20 2t14 2q16 4 31.5 15t15.5 42q0 45 -77 39v105q86 0 136 -31t50 -103q0 -37 -18 -67h229z" />
<glyph d="M-297 1309v-92h-211v141q0 33 -10 48t-21 19l-61 -63q-16 -14 -39 -15t-39 15l-65 63q-16 -6 -27.5 -20t-11.5 -43q0 -23 22.5 -41t61.5 -18v-93h-25q-68 0 -113 44t-45 104q0 68 30 102.5t60 50.5q23 10 46.5 14.5t46.5 -18.5l57 -55l47 47q23 27 49.5 25t40.5 -11 q35 -16 65.5 -55t30.5 -100v-49h111z" />
<glyph d="M-528 1323v100h120v111h109v-111h121v-100h-121v-106h-109v106h-120z" />
<glyph d="M-231 1518h116v-283h-116v283z" />
<glyph d="M55 1335v-100h-440v94q16 0 29 2q10 2 20 2t14 2q16 4 32 15.5t16 42.5q0 45 -78 39v104q86 0 136 -30.5t50 -102.5q0 -37 -18 -68h239z" />
<glyph d="M72 1327v-92h-273v141q0 33 -10 48.5t-20 19.5l-62 -64q-16 -14 -38.5 -15t-39.5 15l-65 64q-16 -6 -27.5 -20.5t-11.5 -43.5q0 -23 22.5 -41t61.5 -18v-92h-25q-68 0 -112.5 44t-44.5 103q0 68 29.5 102.5t60.5 51.5q23 10 46 14t46 -18l57 -56l47 48q23 27 49.5 24.5 t40.5 -10.5q35 -16 66 -55t31 -101v-49h172z" />
<glyph d="M-346 1341v101h121v110h108v-110h121v-101h-121v-106h-108v106h-121z" />
</font>
</defs>
</svg>
